ply
format ascii 1.0
element vertex 1638
property float x
property float y
property float z
element face 2884
property list uchar int vertex_indices
end_header
0.000000 0.000000 0.020000
0.000000 0.000000 0.020000
0.000000 0.000000 0.020000
0.000000 0.000000 0.020000
0.000000 0.000000 0.020000
0.000000 0.000000 0.020000
-0.000000 0.000000 0.020000
-0.000000 0.000000 0.020000
-0.000000 0.000000 0.020000
-0.000000 0.000000 0.020000
-0.000000 0.000000 0.020000
-0.000000 -0.000000 0.020000
-0.000000 -0.000000 0.020000
-0.000000 -0.000000 0.020000
-0.000000 -0.000000 0.020000
-0.000000 -0.000000 0.020000
0.000000 -0.000000 0.020000
0.000000 -0.000000 0.020000
0.000000 -0.000000 0.020000
0.000000 -0.000000 0.020000
0.055623 0.000000 0.028810
0.052901 0.017188 0.028810
0.045000 0.032694 0.028810
0.032694 0.045000 0.028810
0.017188 0.052901 0.028810
0.000000 0.055623 0.028810
-0.017188 0.052901 0.028810
-0.032694 0.045000 0.028810
-0.045000 0.032694 0.028810
-0.052901 0.017188 0.028810
-0.055623 0.000000 0.028810
-0.052901 -0.017188 0.028810
-0.045000 -0.032694 0.028810
-0.032694 -0.045000 0.028810
-0.017188 -0.052901 0.028810
-0.000000 -0.055623 0.028810
0.017188 -0.052901 0.028810
0.032694 -0.045000 0.028810
0.045000 -0.032694 0.028810
0.052901 -0.017188 0.028810
0.105801 0.000000 0.054377
0.100623 0.032694 0.054377
0.085595 0.062188 0.054377
0.062188 0.085595 0.054377
0.032694 0.100623 0.054377
0.000000 0.105801 0.054377
-0.032694 0.100623 0.054377
-0.062188 0.085595 0.054377
-0.085595 0.062188 0.054377
-0.100623 0.032694 0.054377
-0.105801 0.000000 0.054377
-0.100623 -0.032694 0.054377
-0.085595 -0.062188 0.054377
-0.062188 -0.085595 0.054377
-0.032694 -0.100623 0.054377
-0.000000 -0.105801 0.054377
0.032694 -0.100623 0.054377
0.062188 -0.085595 0.054377
0.085595 -0.062188 0.054377
0.100623 -0.032694 0.054377
0.145623 0.000000 0.094199
0.138496 0.045000 0.094199
0.117812 0.085595 0.094199
0.085595 0.117812 0.094199
0.045000 0.138496 0.094199
0.000000 0.145623 0.094199
-0.045000 0.138496 0.094199
-0.085595 0.117812 0.094199
-0.117812 0.085595 0.094199
-0.138496 0.045000 0.094199
-0.145623 0.000000 0.094199
-0.138496 -0.045000 0.094199
-0.117812 -0.085595 0.094199
-0.085595 -0.117812 0.094199
-0.045000 -0.138496 0.094199
-0.000000 -0.145623 0.094199
0.045000 -0.138496 0.094199
0.085595 -0.117812 0.094199
0.117812 -0.085595 0.094199
0.138496 -0.045000 0.094199
0.171190 0.000000 0.144377
0.162812 0.052901 0.144377
0.138496 0.100623 0.144377
0.100623 0.138496 0.144377
0.052901 0.162812 0.144377
0.000000 0.171190 0.144377
-0.052901 0.162812 0.144377
-0.100623 0.138496 0.144377
-0.138496 0.100623 0.144377
-0.162812 0.052901 0.144377
-0.171190 0.000000 0.144377
-0.162812 -0.052901 0.144377
-0.138496 -0.100623 0.144377
-0.100623 -0.138496 0.144377
-0.052901 -0.162812 0.144377
-0.000000 -0.171190 0.144377
0.052901 -0.162812 0.144377
0.100623 -0.138496 0.144377
0.138496 -0.100623 0.144377
0.162812 -0.052901 0.144377
0.180000 0.000000 0.200000
0.171190 0.055623 0.200000
0.145623 0.105801 0.200000
0.105801 0.145623 0.200000
0.055623 0.171190 0.200000
0.000000 0.180000 0.200000
-0.055623 0.171190 0.200000
-0.105801 0.145623 0.200000
-0.145623 0.105801 0.200000
-0.171190 0.055623 0.200000
-0.180000 0.000000 0.200000
-0.171190 -0.055623 0.200000
-0.145623 -0.105801 0.200000
-0.105801 -0.145623 0.200000
-0.055623 -0.171190 0.200000
-0.000000 -0.180000 0.200000
0.055623 -0.171190 0.200000
0.105801 -0.145623 0.200000
0.145623 -0.105801 0.200000
0.171190 -0.055623 0.200000
0.171190 0.000000 0.255623
0.162812 0.052901 0.255623
0.138496 0.100623 0.255623
0.100623 0.138496 0.255623
0.052901 0.162812 0.255623
0.000000 0.171190 0.255623
-0.052901 0.162812 0.255623
-0.100623 0.138496 0.255623
-0.138496 0.100623 0.255623
-0.162812 0.052901 0.255623
-0.171190 0.000000 0.255623
-0.162812 -0.052901 0.255623
-0.138496 -0.100623 0.255623
-0.100623 -0.138496 0.255623
-0.052901 -0.162812 0.255623
-0.000000 -0.171190 0.255623
0.052901 -0.162812 0.255623
0.100623 -0.138496 0.255623
0.138496 -0.100623 0.255623
0.162812 -0.052901 0.255623
0.145623 0.000000 0.305801
0.138496 0.045000 0.305801
0.117812 0.085595 0.305801
0.085595 0.117812 0.305801
0.045000 0.138496 0.305801
0.000000 0.145623 0.305801
-0.045000 0.138496 0.305801
-0.085595 0.117812 0.305801
-0.117812 0.085595 0.305801
-0.138496 0.045000 0.305801
-0.145623 0.000000 0.305801
-0.138496 -0.045000 0.305801
-0.117812 -0.085595 0.305801
-0.085595 -0.117812 0.305801
-0.045000 -0.138496 0.305801
-0.000000 -0.145623 0.305801
0.045000 -0.138496 0.305801
0.085595 -0.117812 0.305801
0.117812 -0.085595 0.305801
0.138496 -0.045000 0.305801
0.105801 0.000000 0.345623
0.100623 0.032694 0.345623
0.085595 0.062188 0.345623
0.062188 0.085595 0.345623
0.032694 0.100623 0.345623
0.000000 0.105801 0.345623
-0.032694 0.100623 0.345623
-0.062188 0.085595 0.345623
-0.085595 0.062188 0.345623
-0.100623 0.032694 0.345623
-0.105801 0.000000 0.345623
-0.100623 -0.032694 0.345623
-0.085595 -0.062188 0.345623
-0.062188 -0.085595 0.345623
-0.032694 -0.100623 0.345623
-0.000000 -0.105801 0.345623
0.032694 -0.100623 0.345623
0.062188 -0.085595 0.345623
0.085595 -0.062188 0.345623
0.100623 -0.032694 0.345623
0.055623 0.000000 0.371190
0.052901 0.017188 0.371190
0.045000 0.032694 0.371190
0.032694 0.045000 0.371190
0.017188 0.052901 0.371190
0.000000 0.055623 0.371190
-0.017188 0.052901 0.371190
-0.032694 0.045000 0.371190
-0.045000 0.032694 0.371190
-0.052901 0.017188 0.371190
-0.055623 0.000000 0.371190
-0.052901 -0.017188 0.371190
-0.045000 -0.032694 0.371190
-0.032694 -0.045000 0.371190
-0.017188 -0.052901 0.371190
-0.000000 -0.055623 0.371190
0.017188 -0.052901 0.371190
0.032694 -0.045000 0.371190
0.045000 -0.032694 0.371190
0.052901 -0.017188 0.371190
0.000000 0.000000 0.380000
0.000000 0.000000 0.380000
0.000000 0.000000 0.380000
0.000000 0.000000 0.380000
0.000000 0.000000 0.380000
0.000000 0.000000 0.380000
-0.000000 0.000000 0.380000
-0.000000 0.000000 0.380000
-0.000000 0.000000 0.380000
-0.000000 0.000000 0.380000
-0.000000 0.000000 0.380000
-0.000000 -0.000000 0.380000
-0.000000 -0.000000 0.380000
-0.000000 -0.000000 0.380000
-0.000000 -0.000000 0.380000
-0.000000 -0.000000 0.380000
0.000000 -0.000000 0.380000
0.000000 -0.000000 0.380000
0.000000 -0.000000 0.380000
0.000000 -0.000000 0.380000
0.450000 -0.006858 0.068787
0.450000 -0.006858 0.068787
0.450000 -0.006858 0.068787
0.450000 -0.006858 0.068787
0.450000 -0.006858 0.068787
0.450000 -0.006858 0.068787
0.450000 -0.006858 0.068787
0.450000 -0.006858 0.068787
0.450000 -0.006858 0.068787
0.450000 -0.006858 0.068787
0.450000 -0.006858 0.068787
0.450000 -0.006858 0.068787
0.450000 -0.006858 0.068787
0.450000 -0.006858 0.068787
0.450000 -0.006858 0.068787
0.450000 -0.006858 0.068787
0.450000 -0.006858 0.068787
0.450000 -0.006858 0.068787
0.450000 -0.006858 0.068787
0.496353 -0.006522 0.067868
0.493557 0.038155 0.084176
0.485508 0.077443 0.098518
0.473176 0.106604 0.109162
0.458049 0.122120 0.114826
0.441951 0.122120 0.114826
0.426824 0.106604 0.109162
0.414492 0.077443 0.098518
0.406443 0.038155 0.084176
0.403647 -0.006522 0.067868
0.406443 -0.051199 0.051560
0.414492 -0.090488 0.037218
0.426824 -0.119649 0.026574
0.441951 -0.135165 0.020910
0.458049 -0.135165 0.020910
0.473176 -0.119649 0.026574
0.485508 -0.090488 0.037218
0.493557 -0.051199 0.051560
0.496353 -0.006522 0.067868
0.538168 -0.005548 0.065199
0.532851 0.079433 0.096220
0.517540 0.154163 0.123499
0.494084 0.209631 0.143746
0.465310 0.239144 0.154519
0.434690 0.239144 0.154519
0.405916 0.209631 0.143746
0.382460 0.154163 0.123499
0.367149 0.079433 0.096220
0.361832 -0.005548 0.065199
0.367149 -0.090529 0.034179
0.382460 -0.165260 0.006900
0.405916 -0.220727 -0.013347
0.434690 -0.250241 -0.024120
0.465310 -0.250241 -0.024120
0.494084 -0.220727 -0.013347
0.517540 -0.165260 0.006900
0.532851 -0.090529 0.034179
0.538168 -0.005548 0.065199
0.571353 -0.004031 0.061043
0.564034 0.112935 0.103739
0.542961 0.215793 0.141285
0.510676 0.292137 0.169153
0.471073 0.332759 0.183981
0.428927 0.332759 0.183981
0.389324 0.292137 0.169153
0.357039 0.215793 0.141285
0.335966 0.112935 0.103739
0.328647 -0.004031 0.061043
0.335966 -0.120997 0.018347
0.357039 -0.223855 -0.019199
0.389324 -0.300199 -0.047067
0.428927 -0.340821 -0.061895
0.471073 -0.340821 -0.061895
0.510676 -0.300199 -0.047067
0.542961 -0.223855 -0.019199
0.564034 -0.120997 0.018347
0.571353 -0.004031 0.061043
0.592658 -0.002119 0.055806
0.584055 0.135383 0.105998
0.559283 0.256300 0.150136
0.521329 0.346048 0.182896
0.474772 0.393802 0.200328
0.425228 0.393802 0.200328
0.378671 0.346048 0.182896
0.340717 0.256300 0.150136
0.315945 0.135383 0.105998
0.307342 -0.002119 0.055806
0.315945 -0.139621 0.005614
0.340717 -0.260538 -0.038525
0.378671 -0.350286 -0.071285
0.425228 -0.398040 -0.088717
0.474772 -0.398040 -0.088717
0.521329 -0.350286 -0.071285
0.559283 -0.260538 -0.038525
0.584055 -0.139621 0.005614
0.592658 -0.002119 0.055806
0.600000 -0.000000 0.050000
0.590954 0.144578 0.102775
0.564907 0.271718 0.149185
0.525000 0.366084 0.183631
0.476047 0.416296 0.201960
0.423953 0.416296 0.201960
0.375000 0.366084 0.183631
0.335093 0.271718 0.149185
0.309046 0.144578 0.102775
0.300000 0.000000 0.050000
0.309046 -0.144578 -0.002775
0.335093 -0.271718 -0.049185
0.375000 -0.366084 -0.083631
0.423953 -0.416296 -0.101960
0.476047 -0.416296 -0.101960
0.525000 -0.366084 -0.083631
0.564907 -0.271718 -0.049185
0.590954 -0.144578 -0.002775
0.600000 -0.000000 0.050000
0.592658 0.002119 0.044194
0.584055 0.139621 0.094386
0.559283 0.260538 0.138525
0.521329 0.350286 0.171285
0.474772 0.398040 0.188717
0.425228 0.398040 0.188717
0.378671 0.350286 0.171285
0.340717 0.260538 0.138525
0.315945 0.139621 0.094386
0.307342 0.002119 0.044194
0.315945 -0.135383 -0.005998
0.340717 -0.256300 -0.050136
0.378671 -0.346048 -0.082896
0.425228 -0.393802 -0.100328
0.474772 -0.393802 -0.100328
0.521329 -0.346048 -0.082896
0.559283 -0.256300 -0.050136
0.584055 -0.135383 -0.005998
0.592658 0.002119 0.044194
0.571353 0.004031 0.038957
0.564034 0.120997 0.081653
0.542961 0.223855 0.119199
0.510676 0.300199 0.147067
0.471073 0.340821 0.161895
0.428927 0.340821 0.161895
0.389324 0.300199 0.147067
0.357039 0.223855 0.119199
0.335966 0.120997 0.081653
0.328647 0.004031 0.038957
0.335966 -0.112935 -0.003739
0.357039 -0.215793 -0.041285
0.389324 -0.292137 -0.069153
0.428927 -0.332759 -0.083981
0.471073 -0.332759 -0.083981
0.510676 -0.292137 -0.069153
0.542961 -0.215793 -0.041285
0.564034 -0.112935 -0.003739
0.571353 0.004031 0.038957
0.538168 0.005548 0.034801
0.532851 0.090529 0.065821
0.517540 0.165260 0.093100
0.494084 0.220727 0.113347
0.465310 0.250241 0.124120
0.434690 0.250241 0.124120
0.405916 0.220727 0.113347
0.382460 0.165260 0.093100
0.367149 0.090529 0.065821
0.361832 0.005548 0.034801
0.367149 -0.079433 0.003780
0.382460 -0.154163 -0.023499
0.405916 -0.209631 -0.043746
0.434690 -0.239144 -0.054519
0.465310 -0.239144 -0.054519
0.494084 -0.209631 -0.043746
0.517540 -0.154163 -0.023499
0.532851 -0.079433 0.003780
0.538168 0.005548 0.034801
0.496353 0.006522 0.032132
0.493557 0.051199 0.048440
0.485508 0.090488 0.062782
0.473176 0.119649 0.073426
0.458049 0.135165 0.079090
0.441951 0.135165 0.079090
0.426824 0.119649 0.073426
0.414492 0.090488 0.062782
0.406443 0.051199 0.048440
0.403647 0.006522 0.032132
0.406443 -0.038155 0.015824
0.414492 -0.077443 0.001482
0.426824 -0.106604 -0.009162
0.441951 -0.122120 -0.014826
0.458049 -0.122120 -0.014826
0.473176 -0.106604 -0.009162
0.485508 -0.077443 0.001482
0.493557 -0.038155 0.015824
0.496353 0.006522 0.032132
0.450000 0.006858 0.031213
0.450000 0.006858 0.031213
0.450000 0.006858 0.031213
0.450000 0.006858 0.031213
0.450000 0.006858 0.031213
0.450000 0.006858 0.031213
0.450000 0.006858 0.031213
0.450000 0.006858 0.031213
0.450000 0.006858 0.031213
0.450000 0.006858 0.031213
0.450000 0.006858 0.031213
0.450000 0.006858 0.031213
0.450000 0.006858 0.031213
0.450000 0.006858 0.031213
0.450000 0.006858 0.031213
0.450000 0.006858 0.031213
0.450000 0.006858 0.031213
0.450000 0.006858 0.031213
0.450000 0.006858 0.031213
0.230939 0.386282 0.068787
0.230939 0.386282 0.068787
0.230939 0.386282 0.068787
0.230939 0.386282 0.068787
0.230939 0.386282 0.068787
0.230939 0.386282 0.068787
0.230939 0.386282 0.068787
0.230939 0.386282 0.068787
0.230939 0.386282 0.068787
0.230939 0.386282 0.068787
0.230939 0.386282 0.068787
0.230939 0.386282 0.068787
0.230939 0.386282 0.068787
0.230939 0.386282 0.068787
0.230939 0.386282 0.068787
0.230939 0.386282 0.068787
0.230939 0.386282 0.068787
0.230939 0.386282 0.068787
0.230939 0.386282 0.068787
0.253825 0.426593 0.067868
0.213736 0.446510 0.084176
0.175686 0.459184 0.098518
0.144266 0.463085 0.109162
0.123265 0.457742 0.114826
0.115216 0.443801 0.114826
0.121090 0.422942 0.109162
0.140178 0.397682 0.098518
0.170178 0.371067 0.084176
0.207472 0.346308 0.067868
0.247561 0.326390 0.051560
0.285611 0.313717 0.037218
0.317031 0.309816 0.026574
0.338032 0.315158 0.020910
0.346081 0.329100 0.020910
0.340207 0.349958 0.026574
0.321119 0.375219 0.037218
0.291119 0.401833 0.051560
0.253825 0.426593 0.067868
0.273889 0.463293 0.065199
0.197635 0.501178 0.096220
0.125261 0.525285 0.123499
0.065496 0.532705 0.143746
0.025550 0.522543 0.154519
0.010240 0.496025 0.154519
0.021413 0.456349 0.143746
0.057720 0.408301 0.123499
0.114784 0.357677 0.096220
0.185721 0.310582 0.065199
0.261975 0.272696 0.034179
0.334349 0.248590 0.006900
0.394113 0.241170 -0.013347
0.434060 0.251332 -0.024120
0.449370 0.277850 -0.024120
0.438197 0.317526 -0.013347
0.401889 0.365573 0.006900
0.344826 0.416198 0.034179
0.273889 0.463293 0.065199
0.289167 0.492790 0.061043
0.184212 0.544935 0.103739
0.084598 0.578115 0.141285
0.002340 0.588327 0.169153
-0.052642 0.574341 0.183981
-0.073714 0.537842 0.183981
-0.058337 0.483233 0.169153
-0.008363 0.417101 0.141285
0.070178 0.347423 0.103739
0.167815 0.282602 0.061043
0.272769 0.230456 0.018347
0.372384 0.197277 -0.019199
0.454642 0.187065 -0.047067
0.509624 0.201051 -0.061895
0.530696 0.237550 -0.061895
0.515318 0.292159 -0.047067
0.465345 0.358291 -0.019199
0.386804 0.427969 0.018347
0.289167 0.492790 0.061043
0.298165 0.512198 0.055806
0.174783 0.573498 0.105998
0.057679 0.612503 0.150136
-0.039021 0.624508 0.182896
-0.103656 0.608066 0.200328
-0.128428 0.565159 0.200328
-0.110351 0.500962 0.182896
-0.051603 0.423220 0.150136
0.040728 0.341308 0.105998
0.155506 0.265106 0.055806
0.278888 0.203806 0.005614
0.395991 0.164801 -0.038525
0.492692 0.152795 -0.071285
0.557327 0.169238 -0.088717
0.582099 0.212145 -0.088717
0.564021 0.276341 -0.071285
0.505274 0.354084 -0.038525
0.412943 0.435996 0.005614
0.298165 0.512198 0.055806
0.300000 0.519615 0.050000
0.170269 0.584070 0.102775
0.047139 0.625082 0.149185
-0.054538 0.637705 0.183631
-0.122499 0.620417 0.201960
-0.148546 0.575302 0.201960
-0.129538 0.507802 0.183631
-0.067768 0.426058 0.149185
0.029315 0.339931 0.102775
0.150000 0.259808 0.050000
0.279731 0.195353 -0.002775
0.402861 0.154340 -0.049185
0.504538 0.141717 -0.083631
0.572499 0.159006 -0.101960
0.598546 0.204121 -0.101960
0.579538 0.271621 -0.083631
0.517768 0.353365 -0.049185
0.420685 0.439492 -0.002775
0.300000 0.519615 0.050000
0.294494 0.514317 0.044194
0.171112 0.575617 0.094386
0.054009 0.614622 0.138525
-0.042692 0.626627 0.171285
-0.107327 0.610185 0.188717
-0.132099 0.567278 0.188717
-0.114021 0.503082 0.171285
-0.055274 0.425339 0.138525
0.037057 0.343427 0.094386
0.151835 0.267225 0.044194
0.275217 0.205925 -0.005998
0.392321 0.166920 -0.050136
0.489021 0.154915 -0.082896
0.553656 0.171357 -0.100328
0.578428 0.214264 -0.100328
0.560351 0.278461 -0.082896
0.501603 0.356203 -0.050136
0.409272 0.438115 -0.005998
0.294494 0.514317 0.044194
0.282185 0.496821 0.038957
0.177231 0.548966 0.081653
0.077616 0.582146 0.119199
-0.004642 0.592358 0.147067
-0.059624 0.578372 0.161895
-0.080696 0.541873 0.161895
-0.065318 0.487264 0.147067
-0.015345 0.421132 0.119199
0.063196 0.351454 0.081653
0.160833 0.286633 0.038957
0.265788 0.234487 -0.003739
0.365402 0.201308 -0.041285
0.447660 0.191096 -0.069153
0.502642 0.205082 -0.083981
0.523714 0.241581 -0.083981
0.508337 0.296190 -0.069153
0.458363 0.362322 -0.041285
0.379822 0.432000 -0.003739
0.282185 0.496821 0.038957
0.264279 0.468841 0.034801
0.188025 0.506727 0.065821
0.115651 0.530833 0.093100
0.055887 0.538253 0.113347
0.015940 0.528091 0.124120
0.000630 0.501573 0.124120
0.011803 0.461897 0.113347
0.048111 0.413850 0.093100
0.105174 0.363225 0.065821
0.176111 0.316130 0.034801
0.252365 0.278244 0.003780
0.324739 0.254138 -0.023499
0.384504 0.246718 -0.043746
0.424450 0.256880 -0.054519
0.439760 0.283398 -0.054519
0.428587 0.323074 -0.043746
0.392280 0.371121 -0.023499
0.335216 0.421746 0.003780
0.264279 0.468841 0.034801
0.242528 0.433115 0.032132
0.202439 0.453033 0.048440
0.164389 0.465706 0.062782
0.132969 0.469607 0.073426
0.111968 0.464264 0.079090
0.103919 0.450323 0.079090
0.109793 0.429464 0.073426
0.128881 0.404204 0.062782
0.158881 0.377590 0.048440
0.196175 0.352830 0.032132
0.236264 0.332912 0.015824
0.274314 0.320239 0.001482
0.305734 0.316338 -0.009162
0.326735 0.321681 -0.014826
0.334784 0.335622 -0.014826
0.328910 0.356481 -0.009162
0.309822 0.381741 0.001482
0.279822 0.408356 0.015824
0.242528 0.433115 0.032132
0.219061 0.393140 0.031213
0.219061 0.393140 0.031213
0.219061 0.393140 0.031213
0.219061 0.393140 0.031213
0.219061 0.393140 0.031213
0.219061 0.393140 0.031213
0.219061 0.393140 0.031213
0.219061 0.393140 0.031213
0.219061 0.393140 0.031213
0.219061 0.393140 0.031213
0.219061 0.393140 0.031213
0.219061 0.393140 0.031213
0.219061 0.393140 0.031213
0.219061 0.393140 0.031213
0.219061 0.393140 0.031213
0.219061 0.393140 0.031213
0.219061 0.393140 0.031213
0.219061 0.393140 0.031213
0.219061 0.393140 0.031213
-0.219061 0.393140 0.068787
-0.219061 0.393140 0.068787
-0.219061 0.393140 0.068787
-0.219061 0.393140 0.068787
-0.219061 0.393140 0.068787
-0.219061 0.393140 0.068787
-0.219061 0.393140 0.068787
-0.219061 0.393140 0.068787
-0.219061 0.393140 0.068787
-0.219061 0.393140 0.068787
-0.219061 0.393140 0.068787
-0.219061 0.393140 0.068787
-0.219061 0.393140 0.068787
-0.219061 0.393140 0.068787
-0.219061 0.393140 0.068787
-0.219061 0.393140 0.068787
-0.219061 0.393140 0.068787
-0.219061 0.393140 0.068787
-0.219061 0.393140 0.068787
-0.242528 0.433115 0.067868
-0.279822 0.408356 0.084176
-0.309822 0.381741 0.098518
-0.328910 0.356481 0.109162
-0.334784 0.335622 0.114826
-0.326735 0.321681 0.114826
-0.305734 0.316338 0.109162
-0.274314 0.320239 0.098518
-0.236264 0.332912 0.084176
-0.196175 0.352830 0.067868
-0.158881 0.377590 0.051560
-0.128881 0.404204 0.037218
-0.109793 0.429464 0.026574
-0.103919 0.450323 0.020910
-0.111968 0.464264 0.020910
-0.132969 0.469607 0.026574
-0.164389 0.465706 0.037218
-0.202439 0.453033 0.051560
-0.242528 0.433115 0.067868
-0.264279 0.468841 0.065199
-0.335216 0.421746 0.096220
-0.392280 0.371121 0.123499
-0.428587 0.323074 0.143746
-0.439760 0.283398 0.154519
-0.424450 0.256880 0.154519
-0.384504 0.246718 0.143746
-0.324739 0.254138 0.123499
-0.252365 0.278244 0.096220
-0.176111 0.316130 0.065199
-0.105174 0.363225 0.034179
-0.048111 0.413850 0.006900
-0.011803 0.461897 -0.013347
-0.000630 0.501573 -0.024120
-0.015940 0.528091 -0.024120
-0.055887 0.538253 -0.013347
-0.115651 0.530833 0.006900
-0.188025 0.506727 0.034179
-0.264279 0.468841 0.065199
-0.282185 0.496821 0.061043
-0.379822 0.432000 0.103739
-0.458363 0.362322 0.141285
-0.508337 0.296190 0.169153
-0.523714 0.241581 0.183981
-0.502642 0.205082 0.183981
-0.447660 0.191096 0.169153
-0.365402 0.201308 0.141285
-0.265788 0.234487 0.103739
-0.160833 0.286633 0.061043
-0.063196 0.351454 0.018347
0.015345 0.421132 -0.019199
0.065318 0.487264 -0.047067
0.080696 0.541873 -0.061895
0.059624 0.578372 -0.061895
0.004642 0.592358 -0.047067
-0.077616 0.582146 -0.019199
-0.177231 0.548966 0.018347
-0.282185 0.496821 0.061043
-0.294494 0.514317 0.055806
-0.409272 0.438115 0.105998
-0.501603 0.356203 0.150136
-0.560351 0.278461 0.182896
-0.578428 0.214264 0.200328
-0.553656 0.171357 0.200328
-0.489021 0.154915 0.182896
-0.392321 0.166920 0.150136
-0.275217 0.205925 0.105998
-0.151835 0.267225 0.055806
-0.037057 0.343427 0.005614
0.055274 0.425339 -0.038525
0.114021 0.503082 -0.071285
0.132099 0.567278 -0.088717
0.107327 0.610185 -0.088717
0.042692 0.626627 -0.071285
-0.054009 0.614622 -0.038525
-0.171112 0.575617 0.005614
-0.294494 0.514317 0.055806
-0.300000 0.519615 0.050000
-0.420685 0.439492 0.102775
-0.517768 0.353365 0.149185
-0.579538 0.271621 0.183631
-0.598546 0.204121 0.201960
-0.572499 0.159006 0.201960
-0.504538 0.141717 0.183631
-0.402861 0.154340 0.149185
-0.279731 0.195353 0.102775
-0.150000 0.259808 0.050000
-0.029315 0.339931 -0.002775
0.067768 0.426058 -0.049185
0.129538 0.507802 -0.083631
0.148546 0.575302 -0.101960
0.122499 0.620417 -0.101960
0.054538 0.637705 -0.083631
-0.047139 0.625082 -0.049185
-0.170269 0.584070 -0.002775
-0.300000 0.519615 0.050000
-0.298165 0.512198 0.044194
-0.412943 0.435996 0.094386
-0.505274 0.354084 0.138525
-0.564021 0.276341 0.171285
-0.582099 0.212145 0.188717
-0.557327 0.169238 0.188717
-0.492692 0.152795 0.171285
-0.395991 0.164801 0.138525
-0.278888 0.203806 0.094386
-0.155506 0.265106 0.044194
-0.040728 0.341308 -0.005998
0.051603 0.423220 -0.050136
0.110351 0.500962 -0.082896
0.128428 0.565159 -0.100328
0.103656 0.608066 -0.100328
0.039021 0.624508 -0.082896
-0.057679 0.612503 -0.050136
-0.174783 0.573498 -0.005998
-0.298165 0.512198 0.044194
-0.289167 0.492790 0.038957
-0.386804 0.427969 0.081653
-0.465345 0.358291 0.119199
-0.515318 0.292159 0.147067
-0.530696 0.237550 0.161895
-0.509624 0.201051 0.161895
-0.454642 0.187065 0.147067
-0.372384 0.197277 0.119199
-0.272769 0.230456 0.081653
-0.167815 0.282602 0.038957
-0.070178 0.347423 -0.003739
0.008363 0.417101 -0.041285
0.058337 0.483233 -0.069153
0.073714 0.537842 -0.083981
0.052642 0.574341 -0.083981
-0.002340 0.588327 -0.069153
-0.084598 0.578115 -0.041285
-0.184212 0.544935 -0.003739
-0.289167 0.492790 0.038957
-0.273889 0.463293 0.034801
-0.344826 0.416198 0.065821
-0.401889 0.365573 0.093100
-0.438197 0.317526 0.113347
-0.449370 0.277850 0.124120
-0.434060 0.251332 0.124120
-0.394113 0.241170 0.113347
-0.334349 0.248590 0.093100
-0.261975 0.272696 0.065821
-0.185721 0.310582 0.034801
-0.114784 0.357677 0.003780
-0.057720 0.408301 -0.023499
-0.021413 0.456349 -0.043746
-0.010240 0.496025 -0.054519
-0.025550 0.522543 -0.054519
-0.065496 0.532705 -0.043746
-0.125261 0.525285 -0.023499
-0.197635 0.501178 0.003780
-0.273889 0.463293 0.034801
-0.253825 0.426593 0.032132
-0.291119 0.401833 0.048440
-0.321119 0.375219 0.062782
-0.340207 0.349958 0.073426
-0.346081 0.329100 0.079090
-0.338032 0.315158 0.079090
-0.317031 0.309816 0.073426
-0.285611 0.313717 0.062782
-0.247561 0.326390 0.048440
-0.207472 0.346308 0.032132
-0.170178 0.371067 0.015824
-0.140178 0.397682 0.001482
-0.121090 0.422942 -0.009162
-0.115216 0.443801 -0.014826
-0.123265 0.457742 -0.014826
-0.144266 0.463085 -0.009162
-0.175686 0.459184 0.001482
-0.213736 0.446510 0.015824
-0.253825 0.426593 0.032132
-0.230939 0.386282 0.031213
-0.230939 0.386282 0.031213
-0.230939 0.386282 0.031213
-0.230939 0.386282 0.031213
-0.230939 0.386282 0.031213
-0.230939 0.386282 0.031213
-0.230939 0.386282 0.031213
-0.230939 0.386282 0.031213
-0.230939 0.386282 0.031213
-0.230939 0.386282 0.031213
-0.230939 0.386282 0.031213
-0.230939 0.386282 0.031213
-0.230939 0.386282 0.031213
-0.230939 0.386282 0.031213
-0.230939 0.386282 0.031213
-0.230939 0.386282 0.031213
-0.230939 0.386282 0.031213
-0.230939 0.386282 0.031213
-0.230939 0.386282 0.031213
-0.450000 0.006858 0.068787
-0.450000 0.006858 0.068787
-0.450000 0.006858 0.068787
-0.450000 0.006858 0.068787
-0.450000 0.006858 0.068787
-0.450000 0.006858 0.068787
-0.450000 0.006858 0.068787
-0.450000 0.006858 0.068787
-0.450000 0.006858 0.068787
-0.450000 0.006858 0.068787
-0.450000 0.006858 0.068787
-0.450000 0.006858 0.068787
-0.450000 0.006858 0.068787
-0.450000 0.006858 0.068787
-0.450000 0.006858 0.068787
-0.450000 0.006858 0.068787
-0.450000 0.006858 0.068787
-0.450000 0.006858 0.068787
-0.450000 0.006858 0.068787
-0.496353 0.006522 0.067868
-0.493557 -0.038155 0.084176
-0.485508 -0.077443 0.098518
-0.473176 -0.106604 0.109162
-0.458049 -0.122120 0.114826
-0.441951 -0.122120 0.114826
-0.426824 -0.106604 0.109162
-0.414492 -0.077443 0.098518
-0.406443 -0.038155 0.084176
-0.403647 0.006522 0.067868
-0.406443 0.051199 0.051560
-0.414492 0.090488 0.037218
-0.426824 0.119649 0.026574
-0.441951 0.135165 0.020910
-0.458049 0.135165 0.020910
-0.473176 0.119649 0.026574
-0.485508 0.090488 0.037218
-0.493557 0.051199 0.051560
-0.496353 0.006522 0.067868
-0.538168 0.005548 0.065199
-0.532851 -0.079433 0.096220
-0.517540 -0.154163 0.123499
-0.494084 -0.209631 0.143746
-0.465310 -0.239144 0.154519
-0.434690 -0.239144 0.154519
-0.405916 -0.209631 0.143746
-0.382460 -0.154163 0.123499
-0.367149 -0.079433 0.096220
-0.361832 0.005548 0.065199
-0.367149 0.090529 0.034179
-0.382460 0.165260 0.006900
-0.405916 0.220727 -0.013347
-0.434690 0.250241 -0.024120
-0.465310 0.250241 -0.024120
-0.494084 0.220727 -0.013347
-0.517540 0.165260 0.006900
-0.532851 0.090529 0.034179
-0.538168 0.005548 0.065199
-0.571353 0.004031 0.061043
-0.564034 -0.112935 0.103739
-0.542961 -0.215793 0.141285
-0.510676 -0.292137 0.169153
-0.471073 -0.332759 0.183981
-0.428927 -0.332759 0.183981
-0.389324 -0.292137 0.169153
-0.357039 -0.215793 0.141285
-0.335966 -0.112935 0.103739
-0.328647 0.004031 0.061043
-0.335966 0.120997 0.018347
-0.357039 0.223855 -0.019199
-0.389324 0.300199 -0.047067
-0.428927 0.340821 -0.061895
-0.471073 0.340821 -0.061895
-0.510676 0.300199 -0.047067
-0.542961 0.223855 -0.019199
-0.564034 0.120997 0.018347
-0.571353 0.004031 0.061043
-0.592658 0.002119 0.055806
-0.584055 -0.135383 0.105998
-0.559283 -0.256300 0.150136
-0.521329 -0.346048 0.182896
-0.474772 -0.393802 0.200328
-0.425228 -0.393802 0.200328
-0.378671 -0.346048 0.182896
-0.340717 -0.256300 0.150136
-0.315945 -0.135383 0.105998
-0.307342 0.002119 0.055806
-0.315945 0.139621 0.005614
-0.340717 0.260538 -0.038525
-0.378671 0.350286 -0.071285
-0.425228 0.398040 -0.088717
-0.474772 0.398040 -0.088717
-0.521329 0.350286 -0.071285
-0.559283 0.260538 -0.038525
-0.584055 0.139621 0.005614
-0.592658 0.002119 0.055806
-0.600000 0.000000 0.050000
-0.590954 -0.144578 0.102775
-0.564907 -0.271718 0.149185
-0.525000 -0.366084 0.183631
-0.476047 -0.416296 0.201960
-0.423953 -0.416296 0.201960
-0.375000 -0.366084 0.183631
-0.335093 -0.271718 0.149185
-0.309046 -0.144578 0.102775
-0.300000 -0.000000 0.050000
-0.309046 0.144578 -0.002775
-0.335093 0.271718 -0.049185
-0.375000 0.366084 -0.083631
-0.423953 0.416296 -0.101960
-0.476047 0.416296 -0.101960
-0.525000 0.366084 -0.083631
-0.564907 0.271718 -0.049185
-0.590954 0.144578 -0.002775
-0.600000 0.000000 0.050000
-0.592658 -0.002119 0.044194
-0.584055 -0.139621 0.094386
-0.559283 -0.260538 0.138525
-0.521329 -0.350286 0.171285
-0.474772 -0.398040 0.188717
-0.425228 -0.398040 0.188717
-0.378671 -0.350286 0.171285
-0.340717 -0.260538 0.138525
-0.315945 -0.139621 0.094386
-0.307342 -0.002119 0.044194
-0.315945 0.135383 -0.005998
-0.340717 0.256300 -0.050136
-0.378671 0.346048 -0.082896
-0.425228 0.393802 -0.100328
-0.474772 0.393802 -0.100328
-0.521329 0.346048 -0.082896
-0.559283 0.256300 -0.050136
-0.584055 0.135383 -0.005998
-0.592658 -0.002119 0.044194
-0.571353 -0.004031 0.038957
-0.564034 -0.120997 0.081653
-0.542961 -0.223855 0.119199
-0.510676 -0.300199 0.147067
-0.471073 -0.340821 0.161895
-0.428927 -0.340821 0.161895
-0.389324 -0.300199 0.147067
-0.357039 -0.223855 0.119199
-0.335966 -0.120997 0.081653
-0.328647 -0.004031 0.038957
-0.335966 0.112935 -0.003739
-0.357039 0.215793 -0.041285
-0.389324 0.292137 -0.069153
-0.428927 0.332759 -0.083981
-0.471073 0.332759 -0.083981
-0.510676 0.292137 -0.069153
-0.542961 0.215793 -0.041285
-0.564034 0.112935 -0.003739
-0.571353 -0.004031 0.038957
-0.538168 -0.005548 0.034801
-0.532851 -0.090529 0.065821
-0.517540 -0.165260 0.093100
-0.494084 -0.220727 0.113347
-0.465310 -0.250241 0.124120
-0.434690 -0.250241 0.124120
-0.405916 -0.220727 0.113347
-0.382460 -0.165260 0.093100
-0.367149 -0.090529 0.065821
-0.361832 -0.005548 0.034801
-0.367149 0.079433 0.003780
-0.382460 0.154163 -0.023499
-0.405916 0.209631 -0.043746
-0.434690 0.239144 -0.054519
-0.465310 0.239144 -0.054519
-0.494084 0.209631 -0.043746
-0.517540 0.154163 -0.023499
-0.532851 0.079433 0.003780
-0.538168 -0.005548 0.034801
-0.496353 -0.006522 0.032132
-0.493557 -0.051199 0.048440
-0.485508 -0.090488 0.062782
-0.473176 -0.119649 0.073426
-0.458049 -0.135165 0.079090
-0.441951 -0.135165 0.079090
-0.426824 -0.119649 0.073426
-0.414492 -0.090488 0.062782
-0.406443 -0.051199 0.048440
-0.403647 -0.006522 0.032132
-0.406443 0.038155 0.015824
-0.414492 0.077443 0.001482
-0.426824 0.106604 -0.009162
-0.441951 0.122120 -0.014826
-0.458049 0.122120 -0.014826
-0.473176 0.106604 -0.009162
-0.485508 0.077443 0.001482
-0.493557 0.038155 0.015824
-0.496353 -0.006522 0.032132
-0.450000 -0.006858 0.031213
-0.450000 -0.006858 0.031213
-0.450000 -0.006858 0.031213
-0.450000 -0.006858 0.031213
-0.450000 -0.006858 0.031213
-0.450000 -0.006858 0.031213
-0.450000 -0.006858 0.031213
-0.450000 -0.006858 0.031213
-0.450000 -0.006858 0.031213
-0.450000 -0.006858 0.031213
-0.450000 -0.006858 0.031213
-0.450000 -0.006858 0.031213
-0.450000 -0.006858 0.031213
-0.450000 -0.006858 0.031213
-0.450000 -0.006858 0.031213
-0.450000 -0.006858 0.031213
-0.450000 -0.006858 0.031213
-0.450000 -0.006858 0.031213
-0.450000 -0.006858 0.031213
-0.230939 -0.386282 0.068787
-0.230939 -0.386282 0.068787
-0.230939 -0.386282 0.068787
-0.230939 -0.386282 0.068787
-0.230939 -0.386282 0.068787
-0.230939 -0.386282 0.068787
-0.230939 -0.386282 0.068787
-0.230939 -0.386282 0.068787
-0.230939 -0.386282 0.068787
-0.230939 -0.386282 0.068787
-0.230939 -0.386282 0.068787
-0.230939 -0.386282 0.068787
-0.230939 -0.386282 0.068787
-0.230939 -0.386282 0.068787
-0.230939 -0.386282 0.068787
-0.230939 -0.386282 0.068787
-0.230939 -0.386282 0.068787
-0.230939 -0.386282 0.068787
-0.230939 -0.386282 0.068787
-0.253825 -0.426593 0.067868
-0.213736 -0.446510 0.084176
-0.175686 -0.459184 0.098518
-0.144266 -0.463085 0.109162
-0.123265 -0.457742 0.114826
-0.115216 -0.443801 0.114826
-0.121090 -0.422942 0.109162
-0.140178 -0.397682 0.098518
-0.170178 -0.371067 0.084176
-0.207472 -0.346308 0.067868
-0.247561 -0.326390 0.051560
-0.285611 -0.313717 0.037218
-0.317031 -0.309816 0.026574
-0.338032 -0.315158 0.020910
-0.346081 -0.329100 0.020910
-0.340207 -0.349958 0.026574
-0.321119 -0.375219 0.037218
-0.291119 -0.401833 0.051560
-0.253825 -0.426593 0.067868
-0.273889 -0.463293 0.065199
-0.197635 -0.501178 0.096220
-0.125261 -0.525285 0.123499
-0.065496 -0.532705 0.143746
-0.025550 -0.522543 0.154519
-0.010240 -0.496025 0.154519
-0.021413 -0.456349 0.143746
-0.057720 -0.408301 0.123499
-0.114784 -0.357677 0.096220
-0.185721 -0.310582 0.065199
-0.261975 -0.272696 0.034179
-0.334349 -0.248590 0.006900
-0.394113 -0.241170 -0.013347
-0.434060 -0.251332 -0.024120
-0.449370 -0.277850 -0.024120
-0.438197 -0.317526 -0.013347
-0.401889 -0.365573 0.006900
-0.344826 -0.416198 0.034179
-0.273889 -0.463293 0.065199
-0.289167 -0.492790 0.061043
-0.184212 -0.544935 0.103739
-0.084598 -0.578115 0.141285
-0.002340 -0.588327 0.169153
0.052642 -0.574341 0.183981
0.073714 -0.537842 0.183981
0.058337 -0.483233 0.169153
0.008363 -0.417101 0.141285
-0.070178 -0.347423 0.103739
-0.167815 -0.282602 0.061043
-0.272769 -0.230456 0.018347
-0.372384 -0.197277 -0.019199
-0.454642 -0.187065 -0.047067
-0.509624 -0.201051 -0.061895
-0.530696 -0.237550 -0.061895
-0.515318 -0.292159 -0.047067
-0.465345 -0.358291 -0.019199
-0.386804 -0.427969 0.018347
-0.289167 -0.492790 0.061043
-0.298165 -0.512198 0.055806
-0.174783 -0.573498 0.105998
-0.057679 -0.612503 0.150136
0.039021 -0.624508 0.182896
0.103656 -0.608066 0.200328
0.128428 -0.565159 0.200328
0.110351 -0.500962 0.182896
0.051603 -0.423220 0.150136
-0.040728 -0.341308 0.105998
-0.155506 -0.265106 0.055806
-0.278888 -0.203806 0.005614
-0.395991 -0.164801 -0.038525
-0.492692 -0.152795 -0.071285
-0.557327 -0.169238 -0.088717
-0.582099 -0.212145 -0.088717
-0.564021 -0.276341 -0.071285
-0.505274 -0.354084 -0.038525
-0.412943 -0.435996 0.005614
-0.298165 -0.512198 0.055806
-0.300000 -0.519615 0.050000
-0.170269 -0.584070 0.102775
-0.047139 -0.625082 0.149185
0.054538 -0.637705 0.183631
0.122499 -0.620417 0.201960
0.148546 -0.575302 0.201960
0.129538 -0.507802 0.183631
0.067768 -0.426058 0.149185
-0.029315 -0.339931 0.102775
-0.150000 -0.259808 0.050000
-0.279731 -0.195353 -0.002775
-0.402861 -0.154340 -0.049185
-0.504538 -0.141717 -0.083631
-0.572499 -0.159006 -0.101960
-0.598546 -0.204121 -0.101960
-0.579538 -0.271621 -0.083631
-0.517768 -0.353365 -0.049185
-0.420685 -0.439492 -0.002775
-0.300000 -0.519615 0.050000
-0.294494 -0.514317 0.044194
-0.171112 -0.575617 0.094386
-0.054009 -0.614622 0.138525
0.042692 -0.626627 0.171285
0.107327 -0.610185 0.188717
0.132099 -0.567278 0.188717
0.114021 -0.503082 0.171285
0.055274 -0.425339 0.138525
-0.037057 -0.343427 0.094386
-0.151835 -0.267225 0.044194
-0.275217 -0.205925 -0.005998
-0.392321 -0.166920 -0.050136
-0.489021 -0.154915 -0.082896
-0.553656 -0.171357 -0.100328
-0.578428 -0.214264 -0.100328
-0.560351 -0.278461 -0.082896
-0.501603 -0.356203 -0.050136
-0.409272 -0.438115 -0.005998
-0.294494 -0.514317 0.044194
-0.282185 -0.496821 0.038957
-0.177231 -0.548966 0.081653
-0.077616 -0.582146 0.119199
0.004642 -0.592358 0.147067
0.059624 -0.578372 0.161895
0.080696 -0.541873 0.161895
0.065318 -0.487264 0.147067
0.015345 -0.421132 0.119199
-0.063196 -0.351454 0.081653
-0.160833 -0.286633 0.038957
-0.265788 -0.234487 -0.003739
-0.365402 -0.201308 -0.041285
-0.447660 -0.191096 -0.069153
-0.502642 -0.205082 -0.083981
-0.523714 -0.241581 -0.083981
-0.508337 -0.296190 -0.069153
-0.458363 -0.362322 -0.041285
-0.379822 -0.432000 -0.003739
-0.282185 -0.496821 0.038957
-0.264279 -0.468841 0.034801
-0.188025 -0.506727 0.065821
-0.115651 -0.530833 0.093100
-0.055887 -0.538253 0.113347
-0.015940 -0.528091 0.124120
-0.000630 -0.501573 0.124120
-0.011803 -0.461897 0.113347
-0.048111 -0.413850 0.093100
-0.105174 -0.363225 0.065821
-0.176111 -0.316130 0.034801
-0.252365 -0.278244 0.003780
-0.324739 -0.254138 -0.023499
-0.384504 -0.246718 -0.043746
-0.424450 -0.256880 -0.054519
-0.439760 -0.283398 -0.054519
-0.428587 -0.323074 -0.043746
-0.392280 -0.371121 -0.023499
-0.335216 -0.421746 0.003780
-0.264279 -0.468841 0.034801
-0.242528 -0.433115 0.032132
-0.202439 -0.453033 0.048440
-0.164389 -0.465706 0.062782
-0.132969 -0.469607 0.073426
-0.111968 -0.464264 0.079090
-0.103919 -0.450323 0.079090
-0.109793 -0.429464 0.073426
-0.128881 -0.404204 0.062782
-0.158881 -0.377590 0.048440
-0.196175 -0.352830 0.032132
-0.236264 -0.332912 0.015824
-0.274314 -0.320239 0.001482
-0.305734 -0.316338 -0.009162
-0.326735 -0.321681 -0.014826
-0.334784 -0.335622 -0.014826
-0.328910 -0.356481 -0.009162
-0.309822 -0.381741 0.001482
-0.279822 -0.408356 0.015824
-0.242528 -0.433115 0.032132
-0.219061 -0.393140 0.031213
-0.219061 -0.393140 0.031213
-0.219061 -0.393140 0.031213
-0.219061 -0.393140 0.031213
-0.219061 -0.393140 0.031213
-0.219061 -0.393140 0.031213
-0.219061 -0.393140 0.031213
-0.219061 -0.393140 0.031213
-0.219061 -0.393140 0.031213
-0.219061 -0.393140 0.031213
-0.219061 -0.393140 0.031213
-0.219061 -0.393140 0.031213
-0.219061 -0.393140 0.031213
-0.219061 -0.393140 0.031213
-0.219061 -0.393140 0.031213
-0.219061 -0.393140 0.031213
-0.219061 -0.393140 0.031213
-0.219061 -0.393140 0.031213
-0.219061 -0.393140 0.031213
0.219061 -0.393140 0.068787
0.219061 -0.393140 0.068787
0.219061 -0.393140 0.068787
0.219061 -0.393140 0.068787
0.219061 -0.393140 0.068787
0.219061 -0.393140 0.068787
0.219061 -0.393140 0.068787
0.219061 -0.393140 0.068787
0.219061 -0.393140 0.068787
0.219061 -0.393140 0.068787
0.219061 -0.393140 0.068787
0.219061 -0.393140 0.068787
0.219061 -0.393140 0.068787
0.219061 -0.393140 0.068787
0.219061 -0.393140 0.068787
0.219061 -0.393140 0.068787
0.219061 -0.393140 0.068787
0.219061 -0.393140 0.068787
0.219061 -0.393140 0.068787
0.242528 -0.433115 0.067868
0.279822 -0.408356 0.084176
0.309822 -0.381741 0.098518
0.328910 -0.356481 0.109162
0.334784 -0.335622 0.114826
0.326735 -0.321681 0.114826
0.305734 -0.316338 0.109162
0.274314 -0.320239 0.098518
0.236264 -0.332912 0.084176
0.196175 -0.352830 0.067868
0.158881 -0.377590 0.051560
0.128881 -0.404204 0.037218
0.109793 -0.429464 0.026574
0.103919 -0.450323 0.020910
0.111968 -0.464264 0.020910
0.132969 -0.469607 0.026574
0.164389 -0.465706 0.037218
0.202439 -0.453033 0.051560
0.242528 -0.433115 0.067868
0.264279 -0.468841 0.065199
0.335216 -0.421746 0.096220
0.392280 -0.371121 0.123499
0.428587 -0.323074 0.143746
0.439760 -0.283398 0.154519
0.424450 -0.256880 0.154519
0.384504 -0.246718 0.143746
0.324739 -0.254138 0.123499
0.252365 -0.278244 0.096220
0.176111 -0.316130 0.065199
0.105174 -0.363225 0.034179
0.048111 -0.413850 0.006900
0.011803 -0.461897 -0.013347
0.000630 -0.501573 -0.024120
0.015940 -0.528091 -0.024120
0.055887 -0.538253 -0.013347
0.115651 -0.530833 0.006900
0.188025 -0.506727 0.034179
0.264279 -0.468841 0.065199
0.282185 -0.496821 0.061043
0.379822 -0.432000 0.103739
0.458363 -0.362322 0.141285
0.508337 -0.296190 0.169153
0.523714 -0.241581 0.183981
0.502642 -0.205082 0.183981
0.447660 -0.191096 0.169153
0.365402 -0.201308 0.141285
0.265788 -0.234487 0.103739
0.160833 -0.286633 0.061043
0.063196 -0.351454 0.018347
-0.015345 -0.421132 -0.019199
-0.065318 -0.487264 -0.047067
-0.080696 -0.541873 -0.061895
-0.059624 -0.578372 -0.061895
-0.004642 -0.592358 -0.047067
0.077616 -0.582146 -0.019199
0.177231 -0.548966 0.018347
0.282185 -0.496821 0.061043
0.294494 -0.514317 0.055806
0.409272 -0.438115 0.105998
0.501603 -0.356203 0.150136
0.560351 -0.278461 0.182896
0.578428 -0.214264 0.200328
0.553656 -0.171357 0.200328
0.489021 -0.154915 0.182896
0.392321 -0.166920 0.150136
0.275217 -0.205925 0.105998
0.151835 -0.267225 0.055806
0.037057 -0.343427 0.005614
-0.055274 -0.425339 -0.038525
-0.114021 -0.503082 -0.071285
-0.132099 -0.567278 -0.088717
-0.107327 -0.610185 -0.088717
-0.042692 -0.626627 -0.071285
0.054009 -0.614622 -0.038525
0.171112 -0.575617 0.005614
0.294494 -0.514317 0.055806
0.300000 -0.519615 0.050000
0.420685 -0.439492 0.102775
0.517768 -0.353365 0.149185
0.579538 -0.271621 0.183631
0.598546 -0.204121 0.201960
0.572499 -0.159006 0.201960
0.504538 -0.141717 0.183631
0.402861 -0.154340 0.149185
0.279731 -0.195353 0.102775
0.150000 -0.259808 0.050000
0.029315 -0.339931 -0.002775
-0.067768 -0.426058 -0.049185
-0.129538 -0.507802 -0.083631
-0.148546 -0.575302 -0.101960
-0.122499 -0.620417 -0.101960
-0.054538 -0.637705 -0.083631
0.047139 -0.625082 -0.049185
0.170269 -0.584070 -0.002775
0.300000 -0.519615 0.050000
0.298165 -0.512198 0.044194
0.412943 -0.435996 0.094386
0.505274 -0.354084 0.138525
0.564021 -0.276341 0.171285
0.582099 -0.212145 0.188717
0.557327 -0.169238 0.188717
0.492692 -0.152795 0.171285
0.395991 -0.164801 0.138525
0.278888 -0.203806 0.094386
0.155506 -0.265106 0.044194
0.040728 -0.341308 -0.005998
-0.051603 -0.423220 -0.050136
-0.110351 -0.500962 -0.082896
-0.128428 -0.565159 -0.100328
-0.103656 -0.608066 -0.100328
-0.039021 -0.624508 -0.082896
0.057679 -0.612503 -0.050136
0.174783 -0.573498 -0.005998
0.298165 -0.512198 0.044194
0.289167 -0.492790 0.038957
0.386804 -0.427969 0.081653
0.465345 -0.358291 0.119199
0.515318 -0.292159 0.147067
0.530696 -0.237550 0.161895
0.509624 -0.201051 0.161895
0.454642 -0.187065 0.147067
0.372384 -0.197277 0.119199
0.272769 -0.230456 0.081653
0.167815 -0.282602 0.038957
0.070178 -0.347423 -0.003739
-0.008363 -0.417101 -0.041285
-0.058337 -0.483233 -0.069153
-0.073714 -0.537842 -0.083981
-0.052642 -0.574341 -0.083981
0.002340 -0.588327 -0.069153
0.084598 -0.578115 -0.041285
0.184212 -0.544935 -0.003739
0.289167 -0.492790 0.038957
0.273889 -0.463293 0.034801
0.344826 -0.416198 0.065821
0.401889 -0.365573 0.093100
0.438197 -0.317526 0.113347
0.449370 -0.277850 0.124120
0.434060 -0.251332 0.124120
0.394113 -0.241170 0.113347
0.334349 -0.248590 0.093100
0.261975 -0.272696 0.065821
0.185721 -0.310582 0.034801
0.114784 -0.357677 0.003780
0.057720 -0.408301 -0.023499
0.021413 -0.456349 -0.043746
0.010240 -0.496025 -0.054519
0.025550 -0.522543 -0.054519
0.065496 -0.532705 -0.043746
0.125261 -0.525285 -0.023499
0.197635 -0.501178 0.003780
0.273889 -0.463293 0.034801
0.253825 -0.426593 0.032132
0.291119 -0.401833 0.048440
0.321119 -0.375219 0.062782
0.340207 -0.349958 0.073426
0.346081 -0.329100 0.079090
0.338032 -0.315158 0.079090
0.317031 -0.309816 0.073426
0.285611 -0.313717 0.062782
0.247561 -0.326390 0.048440
0.207472 -0.346308 0.032132
0.170178 -0.371067 0.015824
0.140178 -0.397682 0.001482
0.121090 -0.422942 -0.009162
0.115216 -0.443801 -0.014826
0.123265 -0.457742 -0.014826
0.144266 -0.463085 -0.009162
0.175686 -0.459184 0.001482
0.213736 -0.446510 0.015824
0.253825 -0.426593 0.032132
0.230939 -0.386282 0.031213
0.230939 -0.386282 0.031213
0.230939 -0.386282 0.031213
0.230939 -0.386282 0.031213
0.230939 -0.386282 0.031213
0.230939 -0.386282 0.031213
0.230939 -0.386282 0.031213
0.230939 -0.386282 0.031213
0.230939 -0.386282 0.031213
0.230939 -0.386282 0.031213
0.230939 -0.386282 0.031213
0.230939 -0.386282 0.031213
0.230939 -0.386282 0.031213
0.230939 -0.386282 0.031213
0.230939 -0.386282 0.031213
0.230939 -0.386282 0.031213
0.230939 -0.386282 0.031213
0.230939 -0.386282 0.031213
0.230939 -0.386282 0.031213
0.000000 0.050000 -1.000000
-0.017101 0.046985 -1.000000
-0.032139 0.038302 -1.000000
-0.043301 0.025000 -1.000000
-0.049240 0.008682 -1.000000
-0.049240 -0.008682 -1.000000
-0.043301 -0.025000 -1.000000
-0.032139 -0.038302 -1.000000
-0.017101 -0.046985 -1.000000
-0.000000 -0.050000 -1.000000
0.017101 -0.046985 -1.000000
0.032139 -0.038302 -1.000000
0.043301 -0.025000 -1.000000
0.049240 -0.008682 -1.000000
0.049240 0.008682 -1.000000
0.043301 0.025000 -1.000000
0.032139 0.038302 -1.000000
0.017101 0.046985 -1.000000
0.000000 0.050000 -0.900000
-0.017101 0.046985 -0.900000
-0.032139 0.038302 -0.900000
-0.043301 0.025000 -0.900000
-0.049240 0.008682 -0.900000
-0.049240 -0.008682 -0.900000
-0.043301 -0.025000 -0.900000
-0.032139 -0.038302 -0.900000
-0.017101 -0.046985 -0.900000
-0.000000 -0.050000 -0.900000
0.017101 -0.046985 -0.900000
0.032139 -0.038302 -0.900000
0.043301 -0.025000 -0.900000
0.049240 -0.008682 -0.900000
0.049240 0.008682 -0.900000
0.043301 0.025000 -0.900000
0.032139 0.038302 -0.900000
0.017101 0.046985 -0.900000
0.000000 0.050000 -0.800000
-0.017101 0.046985 -0.800000
-0.032139 0.038302 -0.800000
-0.043301 0.025000 -0.800000
-0.049240 0.008682 -0.800000
-0.049240 -0.008682 -0.800000
-0.043301 -0.025000 -0.800000
-0.032139 -0.038302 -0.800000
-0.017101 -0.046985 -0.800000
-0.000000 -0.050000 -0.800000
0.017101 -0.046985 -0.800000
0.032139 -0.038302 -0.800000
0.043301 -0.025000 -0.800000
0.049240 -0.008682 -0.800000
0.049240 0.008682 -0.800000
0.043301 0.025000 -0.800000
0.032139 0.038302 -0.800000
0.017101 0.046985 -0.800000
0.000000 0.050000 -0.700000
-0.017101 0.046985 -0.700000
-0.032139 0.038302 -0.700000
-0.043301 0.025000 -0.700000
-0.049240 0.008682 -0.700000
-0.049240 -0.008682 -0.700000
-0.043301 -0.025000 -0.700000
-0.032139 -0.038302 -0.700000
-0.017101 -0.046985 -0.700000
-0.000000 -0.050000 -0.700000
0.017101 -0.046985 -0.700000
0.032139 -0.038302 -0.700000
0.043301 -0.025000 -0.700000
0.049240 -0.008682 -0.700000
0.049240 0.008682 -0.700000
0.043301 0.025000 -0.700000
0.032139 0.038302 -0.700000
0.017101 0.046985 -0.700000
0.000000 0.050000 -0.600000
-0.017101 0.046985 -0.600000
-0.032139 0.038302 -0.600000
-0.043301 0.025000 -0.600000
-0.049240 0.008682 -0.600000
-0.049240 -0.008682 -0.600000
-0.043301 -0.025000 -0.600000
-0.032139 -0.038302 -0.600000
-0.017101 -0.046985 -0.600000
-0.000000 -0.050000 -0.600000
0.017101 -0.046985 -0.600000
0.032139 -0.038302 -0.600000
0.043301 -0.025000 -0.600000
0.049240 -0.008682 -0.600000
0.049240 0.008682 -0.600000
0.043301 0.025000 -0.600000
0.032139 0.038302 -0.600000
0.017101 0.046985 -0.600000
0.000000 0.050000 -0.500000
-0.017101 0.046985 -0.500000
-0.032139 0.038302 -0.500000
-0.043301 0.025000 -0.500000
-0.049240 0.008682 -0.500000
-0.049240 -0.008682 -0.500000
-0.043301 -0.025000 -0.500000
-0.032139 -0.038302 -0.500000
-0.017101 -0.046985 -0.500000
-0.000000 -0.050000 -0.500000
0.017101 -0.046985 -0.500000
0.032139 -0.038302 -0.500000
0.043301 -0.025000 -0.500000
0.049240 -0.008682 -0.500000
0.049240 0.008682 -0.500000
0.043301 0.025000 -0.500000
0.032139 0.038302 -0.500000
0.017101 0.046985 -0.500000
0.000000 0.050000 -0.400000
-0.017101 0.046985 -0.400000
-0.032139 0.038302 -0.400000
-0.043301 0.025000 -0.400000
-0.049240 0.008682 -0.400000
-0.049240 -0.008682 -0.400000
-0.043301 -0.025000 -0.400000
-0.032139 -0.038302 -0.400000
-0.017101 -0.046985 -0.400000
-0.000000 -0.050000 -0.400000
0.017101 -0.046985 -0.400000
0.032139 -0.038302 -0.400000
0.043301 -0.025000 -0.400000
0.049240 -0.008682 -0.400000
0.049240 0.008682 -0.400000
0.043301 0.025000 -0.400000
0.032139 0.038302 -0.400000
0.017101 0.046985 -0.400000
0.000000 0.050000 -0.300000
-0.017101 0.046985 -0.300000
-0.032139 0.038302 -0.300000
-0.043301 0.025000 -0.300000
-0.049240 0.008682 -0.300000
-0.049240 -0.008682 -0.300000
-0.043301 -0.025000 -0.300000
-0.032139 -0.038302 -0.300000
-0.017101 -0.046985 -0.300000
-0.000000 -0.050000 -0.300000
0.017101 -0.046985 -0.300000
0.032139 -0.038302 -0.300000
0.043301 -0.025000 -0.300000
0.049240 -0.008682 -0.300000
0.049240 0.008682 -0.300000
0.043301 0.025000 -0.300000
0.032139 0.038302 -0.300000
0.017101 0.046985 -0.300000
0.000000 0.050000 -0.200000
-0.017101 0.046985 -0.200000
-0.032139 0.038302 -0.200000
-0.043301 0.025000 -0.200000
-0.049240 0.008682 -0.200000
-0.049240 -0.008682 -0.200000
-0.043301 -0.025000 -0.200000
-0.032139 -0.038302 -0.200000
-0.017101 -0.046985 -0.200000
-0.000000 -0.050000 -0.200000
0.017101 -0.046985 -0.200000
0.032139 -0.038302 -0.200000
0.043301 -0.025000 -0.200000
0.049240 -0.008682 -0.200000
0.049240 0.008682 -0.200000
0.043301 0.025000 -0.200000
0.032139 0.038302 -0.200000
0.017101 0.046985 -0.200000
0.000000 0.000000 -1.000000
0.000000 0.000000 -0.200000
3 0 1 20
3 1 21 20
3 1 2 21
3 2 22 21
3 2 3 22
3 3 23 22
3 3 4 23
3 4 24 23
3 4 5 24
3 5 25 24
3 5 6 25
3 6 26 25
3 6 7 26
3 7 27 26
3 7 8 27
3 8 28 27
3 8 9 28
3 9 29 28
3 9 10 29
3 10 30 29
3 10 11 30
3 11 31 30
3 11 12 31
3 12 32 31
3 12 13 32
3 13 33 32
3 13 14 33
3 14 34 33
3 14 15 34
3 15 35 34
3 15 16 35
3 16 36 35
3 16 17 36
3 17 37 36
3 17 18 37
3 18 38 37
3 18 19 38
3 19 39 38
3 19 0 39
3 0 20 39
3 20 21 40
3 21 41 40
3 21 22 41
3 22 42 41
3 22 23 42
3 23 43 42
3 23 24 43
3 24 44 43
3 24 25 44
3 25 45 44
3 25 26 45
3 26 46 45
3 26 27 46
3 27 47 46
3 27 28 47
3 28 48 47
3 28 29 48
3 29 49 48
3 29 30 49
3 30 50 49
3 30 31 50
3 31 51 50
3 31 32 51
3 32 52 51
3 32 33 52
3 33 53 52
3 33 34 53
3 34 54 53
3 34 35 54
3 35 55 54
3 35 36 55
3 36 56 55
3 36 37 56
3 37 57 56
3 37 38 57
3 38 58 57
3 38 39 58
3 39 59 58
3 39 20 59
3 20 40 59
3 40 41 60
3 41 61 60
3 41 42 61
3 42 62 61
3 42 43 62
3 43 63 62
3 43 44 63
3 44 64 63
3 44 45 64
3 45 65 64
3 45 46 65
3 46 66 65
3 46 47 66
3 47 67 66
3 47 48 67
3 48 68 67
3 48 49 68
3 49 69 68
3 49 50 69
3 50 70 69
3 50 51 70
3 51 71 70
3 51 52 71
3 52 72 71
3 52 53 72
3 53 73 72
3 53 54 73
3 54 74 73
3 54 55 74
3 55 75 74
3 55 56 75
3 56 76 75
3 56 57 76
3 57 77 76
3 57 58 77
3 58 78 77
3 58 59 78
3 59 79 78
3 59 40 79
3 40 60 79
3 60 61 80
3 61 81 80
3 61 62 81
3 62 82 81
3 62 63 82
3 63 83 82
3 63 64 83
3 64 84 83
3 64 65 84
3 65 85 84
3 65 66 85
3 66 86 85
3 66 67 86
3 67 87 86
3 67 68 87
3 68 88 87
3 68 69 88
3 69 89 88
3 69 70 89
3 70 90 89
3 70 71 90
3 71 91 90
3 71 72 91
3 72 92 91
3 72 73 92
3 73 93 92
3 73 74 93
3 74 94 93
3 74 75 94
3 75 95 94
3 75 76 95
3 76 96 95
3 76 77 96
3 77 97 96
3 77 78 97
3 78 98 97
3 78 79 98
3 79 99 98
3 79 60 99
3 60 80 99
3 80 81 100
3 81 101 100
3 81 82 101
3 82 102 101
3 82 83 102
3 83 103 102
3 83 84 103
3 84 104 103
3 84 85 104
3 85 105 104
3 85 86 105
3 86 106 105
3 86 87 106
3 87 107 106
3 87 88 107
3 88 108 107
3 88 89 108
3 89 109 108
3 89 90 109
3 90 110 109
3 90 91 110
3 91 111 110
3 91 92 111
3 92 112 111
3 92 93 112
3 93 113 112
3 93 94 113
3 94 114 113
3 94 95 114
3 95 115 114
3 95 96 115
3 96 116 115
3 96 97 116
3 97 117 116
3 97 98 117
3 98 118 117
3 98 99 118
3 99 119 118
3 99 80 119
3 80 100 119
3 100 101 120
3 101 121 120
3 101 102 121
3 102 122 121
3 102 103 122
3 103 123 122
3 103 104 123
3 104 124 123
3 104 105 124
3 105 125 124
3 105 106 125
3 106 126 125
3 106 107 126
3 107 127 126
3 107 108 127
3 108 128 127
3 108 109 128
3 109 129 128
3 109 110 129
3 110 130 129
3 110 111 130
3 111 131 130
3 111 112 131
3 112 132 131
3 112 113 132
3 113 133 132
3 113 114 133
3 114 134 133
3 114 115 134
3 115 135 134
3 115 116 135
3 116 136 135
3 116 117 136
3 117 137 136
3 117 118 137
3 118 138 137
3 118 119 138
3 119 139 138
3 119 100 139
3 100 120 139
3 120 121 140
3 121 141 140
3 121 122 141
3 122 142 141
3 122 123 142
3 123 143 142
3 123 124 143
3 124 144 143
3 124 125 144
3 125 145 144
3 125 126 145
3 126 146 145
3 126 127 146
3 127 147 146
3 127 128 147
3 128 148 147
3 128 129 148
3 129 149 148
3 129 130 149
3 130 150 149
3 130 131 150
3 131 151 150
3 131 132 151
3 132 152 151
3 132 133 152
3 133 153 152
3 133 134 153
3 134 154 153
3 134 135 154
3 135 155 154
3 135 136 155
3 136 156 155
3 136 137 156
3 137 157 156
3 137 138 157
3 138 158 157
3 138 139 158
3 139 159 158
3 139 120 159
3 120 140 159
3 140 141 160
3 141 161 160
3 141 142 161
3 142 162 161
3 142 143 162
3 143 163 162
3 143 144 163
3 144 164 163
3 144 145 164
3 145 165 164
3 145 146 165
3 146 166 165
3 146 147 166
3 147 167 166
3 147 148 167
3 148 168 167
3 148 149 168
3 149 169 168
3 149 150 169
3 150 170 169
3 150 151 170
3 151 171 170
3 151 152 171
3 152 172 171
3 152 153 172
3 153 173 172
3 153 154 173
3 154 174 173
3 154 155 174
3 155 175 174
3 155 156 175
3 156 176 175
3 156 157 176
3 157 177 176
3 157 158 177
3 158 178 177
3 158 159 178
3 159 179 178
3 159 140 179
3 140 160 179
3 160 161 180
3 161 181 180
3 161 162 181
3 162 182 181
3 162 163 182
3 163 183 182
3 163 164 183
3 164 184 183
3 164 165 184
3 165 185 184
3 165 166 185
3 166 186 185
3 166 167 186
3 167 187 186
3 167 168 187
3 168 188 187
3 168 169 188
3 169 189 188
3 169 170 189
3 170 190 189
3 170 171 190
3 171 191 190
3 171 172 191
3 172 192 191
3 172 173 192
3 173 193 192
3 173 174 193
3 174 194 193
3 174 175 194
3 175 195 194
3 175 176 195
3 176 196 195
3 176 177 196
3 177 197 196
3 177 178 197
3 178 198 197
3 178 179 198
3 179 199 198
3 179 160 199
3 160 180 199
3 180 181 200
3 181 201 200
3 181 182 201
3 182 202 201
3 182 183 202
3 183 203 202
3 183 184 203
3 184 204 203
3 184 185 204
3 185 205 204
3 185 186 205
3 186 206 205
3 186 187 206
3 187 207 206
3 187 188 207
3 188 208 207
3 188 189 208
3 189 209 208
3 189 190 209
3 190 210 209
3 190 191 210
3 191 211 210
3 191 192 211
3 192 212 211
3 192 193 212
3 193 213 212
3 193 194 213
3 194 214 213
3 194 195 214
3 195 215 214
3 195 196 215
3 196 216 215
3 196 197 216
3 197 217 216
3 197 198 217
3 198 218 217
3 198 199 218
3 199 219 218
3 199 180 219
3 180 200 219
3 220 221 239
3 221 240 239
3 221 222 240
3 222 241 240
3 222 223 241
3 223 242 241
3 223 224 242
3 224 243 242
3 224 225 243
3 225 244 243
3 225 226 244
3 226 245 244
3 226 227 245
3 227 246 245
3 227 228 246
3 228 247 246
3 228 229 247
3 229 248 247
3 229 230 248
3 230 249 248
3 230 231 249
3 231 250 249
3 231 232 250
3 232 251 250
3 232 233 251
3 233 252 251
3 233 234 252
3 234 253 252
3 234 235 253
3 235 254 253
3 235 236 254
3 236 255 254
3 236 237 255
3 237 256 255
3 237 238 256
3 238 257 256
3 239 240 258
3 240 259 258
3 240 241 259
3 241 260 259
3 241 242 260
3 242 261 260
3 242 243 261
3 243 262 261
3 243 244 262
3 244 263 262
3 244 245 263
3 245 264 263
3 245 246 264
3 246 265 264
3 246 247 265
3 247 266 265
3 247 248 266
3 248 267 266
3 248 249 267
3 249 268 267
3 249 250 268
3 250 269 268
3 250 251 269
3 251 270 269
3 251 252 270
3 252 271 270
3 252 253 271
3 253 272 271
3 253 254 272
3 254 273 272
3 254 255 273
3 255 274 273
3 255 256 274
3 256 275 274
3 256 257 275
3 257 276 275
3 258 259 277
3 259 278 277
3 259 260 278
3 260 279 278
3 260 261 279
3 261 280 279
3 261 262 280
3 262 281 280
3 262 263 281
3 263 282 281
3 263 264 282
3 264 283 282
3 264 265 283
3 265 284 283
3 265 266 284
3 266 285 284
3 266 267 285
3 267 286 285
3 267 268 286
3 268 287 286
3 268 269 287
3 269 288 287
3 269 270 288
3 270 289 288
3 270 271 289
3 271 290 289
3 271 272 290
3 272 291 290
3 272 273 291
3 273 292 291
3 273 274 292
3 274 293 292
3 274 275 293
3 275 294 293
3 275 276 294
3 276 295 294
3 277 278 296
3 278 297 296
3 278 279 297
3 279 298 297
3 279 280 298
3 280 299 298
3 280 281 299
3 281 300 299
3 281 282 300
3 282 301 300
3 282 283 301
3 283 302 301
3 283 284 302
3 284 303 302
3 284 285 303
3 285 304 303
3 285 286 304
3 286 305 304
3 286 287 305
3 287 306 305
3 287 288 306
3 288 307 306
3 288 289 307
3 289 308 307
3 289 290 308
3 290 309 308
3 290 291 309
3 291 310 309
3 291 292 310
3 292 311 310
3 292 293 311
3 293 312 311
3 293 294 312
3 294 313 312
3 294 295 313
3 295 314 313
3 296 297 315
3 297 316 315
3 297 298 316
3 298 317 316
3 298 299 317
3 299 318 317
3 299 300 318
3 300 319 318
3 300 301 319
3 301 320 319
3 301 302 320
3 302 321 320
3 302 303 321
3 303 322 321
3 303 304 322
3 304 323 322
3 304 305 323
3 305 324 323
3 305 306 324
3 306 325 324
3 306 307 325
3 307 326 325
3 307 308 326
3 308 327 326
3 308 309 327
3 309 328 327
3 309 310 328
3 310 329 328
3 310 311 329
3 311 330 329
3 311 312 330
3 312 331 330
3 312 313 331
3 313 332 331
3 313 314 332
3 314 333 332
3 315 316 334
3 316 335 334
3 316 317 335
3 317 336 335
3 317 318 336
3 318 337 336
3 318 319 337
3 319 338 337
3 319 320 338
3 320 339 338
3 320 321 339
3 321 340 339
3 321 322 340
3 322 341 340
3 322 323 341
3 323 342 341
3 323 324 342
3 324 343 342
3 324 325 343
3 325 344 343
3 325 326 344
3 326 345 344
3 326 327 345
3 327 346 345
3 327 328 346
3 328 347 346
3 328 329 347
3 329 348 347
3 329 330 348
3 330 349 348
3 330 331 349
3 331 350 349
3 331 332 350
3 332 351 350
3 332 333 351
3 333 352 351
3 334 335 353
3 335 354 353
3 335 336 354
3 336 355 354
3 336 337 355
3 337 356 355
3 337 338 356
3 338 357 356
3 338 339 357
3 339 358 357
3 339 340 358
3 340 359 358
3 340 341 359
3 341 360 359
3 341 342 360
3 342 361 360
3 342 343 361
3 343 362 361
3 343 344 362
3 344 363 362
3 344 345 363
3 345 364 363
3 345 346 364
3 346 365 364
3 346 347 365
3 347 366 365
3 347 348 366
3 348 367 366
3 348 349 367
3 349 368 367
3 349 350 368
3 350 369 368
3 350 351 369
3 351 370 369
3 351 352 370
3 352 371 370
3 353 354 372
3 354 373 372
3 354 355 373
3 355 374 373
3 355 356 374
3 356 375 374
3 356 357 375
3 357 376 375
3 357 358 376
3 358 377 376
3 358 359 377
3 359 378 377
3 359 360 378
3 360 379 378
3 360 361 379
3 361 380 379
3 361 362 380
3 362 381 380
3 362 363 381
3 363 382 381
3 363 364 382
3 364 383 382
3 364 365 383
3 365 384 383
3 365 366 384
3 366 385 384
3 366 367 385
3 367 386 385
3 367 368 386
3 368 387 386
3 368 369 387
3 369 388 387
3 369 370 388
3 370 389 388
3 370 371 389
3 371 390 389
3 372 373 391
3 373 392 391
3 373 374 392
3 374 393 392
3 374 375 393
3 375 394 393
3 375 376 394
3 376 395 394
3 376 377 395
3 377 396 395
3 377 378 396
3 378 397 396
3 378 379 397
3 379 398 397
3 379 380 398
3 380 399 398
3 380 381 399
3 381 400 399
3 381 382 400
3 382 401 400
3 382 383 401
3 383 402 401
3 383 384 402
3 384 403 402
3 384 385 403
3 385 404 403
3 385 386 404
3 386 405 404
3 386 387 405
3 387 406 405
3 387 388 406
3 388 407 406
3 388 389 407
3 389 408 407
3 389 390 408
3 390 409 408
3 391 392 410
3 392 411 410
3 392 393 411
3 393 412 411
3 393 394 412
3 394 413 412
3 394 395 413
3 395 414 413
3 395 396 414
3 396 415 414
3 396 397 415
3 397 416 415
3 397 398 416
3 398 417 416
3 398 399 417
3 399 418 417
3 399 400 418
3 400 419 418
3 400 401 419
3 401 420 419
3 401 402 420
3 402 421 420
3 402 403 421
3 403 422 421
3 403 404 422
3 404 423 422
3 404 405 423
3 405 424 423
3 405 406 424
3 406 425 424
3 406 407 425
3 407 426 425
3 407 408 426
3 408 427 426
3 408 409 427
3 409 428 427
3 429 430 448
3 430 449 448
3 430 431 449
3 431 450 449
3 431 432 450
3 432 451 450
3 432 433 451
3 433 452 451
3 433 434 452
3 434 453 452
3 434 435 453
3 435 454 453
3 435 436 454
3 436 455 454
3 436 437 455
3 437 456 455
3 437 438 456
3 438 457 456
3 438 439 457
3 439 458 457
3 439 440 458
3 440 459 458
3 440 441 459
3 441 460 459
3 441 442 460
3 442 461 460
3 442 443 461
3 443 462 461
3 443 444 462
3 444 463 462
3 444 445 463
3 445 464 463
3 445 446 464
3 446 465 464
3 446 447 465
3 447 466 465
3 448 449 467
3 449 468 467
3 449 450 468
3 450 469 468
3 450 451 469
3 451 470 469
3 451 452 470
3 452 471 470
3 452 453 471
3 453 472 471
3 453 454 472
3 454 473 472
3 454 455 473
3 455 474 473
3 455 456 474
3 456 475 474
3 456 457 475
3 457 476 475
3 457 458 476
3 458 477 476
3 458 459 477
3 459 478 477
3 459 460 478
3 460 479 478
3 460 461 479
3 461 480 479
3 461 462 480
3 462 481 480
3 462 463 481
3 463 482 481
3 463 464 482
3 464 483 482
3 464 465 483
3 465 484 483
3 465 466 484
3 466 485 484
3 467 468 486
3 468 487 486
3 468 469 487
3 469 488 487
3 469 470 488
3 470 489 488
3 470 471 489
3 471 490 489
3 471 472 490
3 472 491 490
3 472 473 491
3 473 492 491
3 473 474 492
3 474 493 492
3 474 475 493
3 475 494 493
3 475 476 494
3 476 495 494
3 476 477 495
3 477 496 495
3 477 478 496
3 478 497 496
3 478 479 497
3 479 498 497
3 479 480 498
3 480 499 498
3 480 481 499
3 481 500 499
3 481 482 500
3 482 501 500
3 482 483 501
3 483 502 501
3 483 484 502
3 484 503 502
3 484 485 503
3 485 504 503
3 486 487 505
3 487 506 505
3 487 488 506
3 488 507 506
3 488 489 507
3 489 508 507
3 489 490 508
3 490 509 508
3 490 491 509
3 491 510 509
3 491 492 510
3 492 511 510
3 492 493 511
3 493 512 511
3 493 494 512
3 494 513 512
3 494 495 513
3 495 514 513
3 495 496 514
3 496 515 514
3 496 497 515
3 497 516 515
3 497 498 516
3 498 517 516
3 498 499 517
3 499 518 517
3 499 500 518
3 500 519 518
3 500 501 519
3 501 520 519
3 501 502 520
3 502 521 520
3 502 503 521
3 503 522 521
3 503 504 522
3 504 523 522
3 505 506 524
3 506 525 524
3 506 507 525
3 507 526 525
3 507 508 526
3 508 527 526
3 508 509 527
3 509 528 527
3 509 510 528
3 510 529 528
3 510 511 529
3 511 530 529
3 511 512 530
3 512 531 530
3 512 513 531
3 513 532 531
3 513 514 532
3 514 533 532
3 514 515 533
3 515 534 533
3 515 516 534
3 516 535 534
3 516 517 535
3 517 536 535
3 517 518 536
3 518 537 536
3 518 519 537
3 519 538 537
3 519 520 538
3 520 539 538
3 520 521 539
3 521 540 539
3 521 522 540
3 522 541 540
3 522 523 541
3 523 542 541
3 524 525 543
3 525 544 543
3 525 526 544
3 526 545 544
3 526 527 545
3 527 546 545
3 527 528 546
3 528 547 546
3 528 529 547
3 529 548 547
3 529 530 548
3 530 549 548
3 530 531 549
3 531 550 549
3 531 532 550
3 532 551 550
3 532 533 551
3 533 552 551
3 533 534 552
3 534 553 552
3 534 535 553
3 535 554 553
3 535 536 554
3 536 555 554
3 536 537 555
3 537 556 555
3 537 538 556
3 538 557 556
3 538 539 557
3 539 558 557
3 539 540 558
3 540 559 558
3 540 541 559
3 541 560 559
3 541 542 560
3 542 561 560
3 543 544 562
3 544 563 562
3 544 545 563
3 545 564 563
3 545 546 564
3 546 565 564
3 546 547 565
3 547 566 565
3 547 548 566
3 548 567 566
3 548 549 567
3 549 568 567
3 549 550 568
3 550 569 568
3 550 551 569
3 551 570 569
3 551 552 570
3 552 571 570
3 552 553 571
3 553 572 571
3 553 554 572
3 554 573 572
3 554 555 573
3 555 574 573
3 555 556 574
3 556 575 574
3 556 557 575
3 557 576 575
3 557 558 576
3 558 577 576
3 558 559 577
3 559 578 577
3 559 560 578
3 560 579 578
3 560 561 579
3 561 580 579
3 562 563 581
3 563 582 581
3 563 564 582
3 564 583 582
3 564 565 583
3 565 584 583
3 565 566 584
3 566 585 584
3 566 567 585
3 567 586 585
3 567 568 586
3 568 587 586
3 568 569 587
3 569 588 587
3 569 570 588
3 570 589 588
3 570 571 589
3 571 590 589
3 571 572 590
3 572 591 590
3 572 573 591
3 573 592 591
3 573 574 592
3 574 593 592
3 574 575 593
3 575 594 593
3 575 576 594
3 576 595 594
3 576 577 595
3 577 596 595
3 577 578 596
3 578 597 596
3 578 579 597
3 579 598 597
3 579 580 598
3 580 599 598
3 581 582 600
3 582 601 600
3 582 583 601
3 583 602 601
3 583 584 602
3 584 603 602
3 584 585 603
3 585 604 603
3 585 586 604
3 586 605 604
3 586 587 605
3 587 606 605
3 587 588 606
3 588 607 606
3 588 589 607
3 589 608 607
3 589 590 608
3 590 609 608
3 590 591 609
3 591 610 609
3 591 592 610
3 592 611 610
3 592 593 611
3 593 612 611
3 593 594 612
3 594 613 612
3 594 595 613
3 595 614 613
3 595 596 614
3 596 615 614
3 596 597 615
3 597 616 615
3 597 598 616
3 598 617 616
3 598 599 617
3 599 618 617
3 600 601 619
3 601 620 619
3 601 602 620
3 602 621 620
3 602 603 621
3 603 622 621
3 603 604 622
3 604 623 622
3 604 605 623
3 605 624 623
3 605 606 624
3 606 625 624
3 606 607 625
3 607 626 625
3 607 608 626
3 608 627 626
3 608 609 627
3 609 628 627
3 609 610 628
3 610 629 628
3 610 611 629
3 611 630 629
3 611 612 630
3 612 631 630
3 612 613 631
3 613 632 631
3 613 614 632
3 614 633 632
3 614 615 633
3 615 634 633
3 615 616 634
3 616 635 634
3 616 617 635
3 617 636 635
3 617 618 636
3 618 637 636
3 638 639 657
3 639 658 657
3 639 640 658
3 640 659 658
3 640 641 659
3 641 660 659
3 641 642 660
3 642 661 660
3 642 643 661
3 643 662 661
3 643 644 662
3 644 663 662
3 644 645 663
3 645 664 663
3 645 646 664
3 646 665 664
3 646 647 665
3 647 666 665
3 647 648 666
3 648 667 666
3 648 649 667
3 649 668 667
3 649 650 668
3 650 669 668
3 650 651 669
3 651 670 669
3 651 652 670
3 652 671 670
3 652 653 671
3 653 672 671
3 653 654 672
3 654 673 672
3 654 655 673
3 655 674 673
3 655 656 674
3 656 675 674
3 657 658 676
3 658 677 676
3 658 659 677
3 659 678 677
3 659 660 678
3 660 679 678
3 660 661 679
3 661 680 679
3 661 662 680
3 662 681 680
3 662 663 681
3 663 682 681
3 663 664 682
3 664 683 682
3 664 665 683
3 665 684 683
3 665 666 684
3 666 685 684
3 666 667 685
3 667 686 685
3 667 668 686
3 668 687 686
3 668 669 687
3 669 688 687
3 669 670 688
3 670 689 688
3 670 671 689
3 671 690 689
3 671 672 690
3 672 691 690
3 672 673 691
3 673 692 691
3 673 674 692
3 674 693 692
3 674 675 693
3 675 694 693
3 676 677 695
3 677 696 695
3 677 678 696
3 678 697 696
3 678 679 697
3 679 698 697
3 679 680 698
3 680 699 698
3 680 681 699
3 681 700 699
3 681 682 700
3 682 701 700
3 682 683 701
3 683 702 701
3 683 684 702
3 684 703 702
3 684 685 703
3 685 704 703
3 685 686 704
3 686 705 704
3 686 687 705
3 687 706 705
3 687 688 706
3 688 707 706
3 688 689 707
3 689 708 707
3 689 690 708
3 690 709 708
3 690 691 709
3 691 710 709
3 691 692 710
3 692 711 710
3 692 693 711
3 693 712 711
3 693 694 712
3 694 713 712
3 695 696 714
3 696 715 714
3 696 697 715
3 697 716 715
3 697 698 716
3 698 717 716
3 698 699 717
3 699 718 717
3 699 700 718
3 700 719 718
3 700 701 719
3 701 720 719
3 701 702 720
3 702 721 720
3 702 703 721
3 703 722 721
3 703 704 722
3 704 723 722
3 704 705 723
3 705 724 723
3 705 706 724
3 706 725 724
3 706 707 725
3 707 726 725
3 707 708 726
3 708 727 726
3 708 709 727
3 709 728 727
3 709 710 728
3 710 729 728
3 710 711 729
3 711 730 729
3 711 712 730
3 712 731 730
3 712 713 731
3 713 732 731
3 714 715 733
3 715 734 733
3 715 716 734
3 716 735 734
3 716 717 735
3 717 736 735
3 717 718 736
3 718 737 736
3 718 719 737
3 719 738 737
3 719 720 738
3 720 739 738
3 720 721 739
3 721 740 739
3 721 722 740
3 722 741 740
3 722 723 741
3 723 742 741
3 723 724 742
3 724 743 742
3 724 725 743
3 725 744 743
3 725 726 744
3 726 745 744
3 726 727 745
3 727 746 745
3 727 728 746
3 728 747 746
3 728 729 747
3 729 748 747
3 729 730 748
3 730 749 748
3 730 731 749
3 731 750 749
3 731 732 750
3 732 751 750
3 733 734 752
3 734 753 752
3 734 735 753
3 735 754 753
3 735 736 754
3 736 755 754
3 736 737 755
3 737 756 755
3 737 738 756
3 738 757 756
3 738 739 757
3 739 758 757
3 739 740 758
3 740 759 758
3 740 741 759
3 741 760 759
3 741 742 760
3 742 761 760
3 742 743 761
3 743 762 761
3 743 744 762
3 744 763 762
3 744 745 763
3 745 764 763
3 745 746 764
3 746 765 764
3 746 747 765
3 747 766 765
3 747 748 766
3 748 767 766
3 748 749 767
3 749 768 767
3 749 750 768
3 750 769 768
3 750 751 769
3 751 770 769
3 752 753 771
3 753 772 771
3 753 754 772
3 754 773 772
3 754 755 773
3 755 774 773
3 755 756 774
3 756 775 774
3 756 757 775
3 757 776 775
3 757 758 776
3 758 777 776
3 758 759 777
3 759 778 777
3 759 760 778
3 760 779 778
3 760 761 779
3 761 780 779
3 761 762 780
3 762 781 780
3 762 763 781
3 763 782 781
3 763 764 782
3 764 783 782
3 764 765 783
3 765 784 783
3 765 766 784
3 766 785 784
3 766 767 785
3 767 786 785
3 767 768 786
3 768 787 786
3 768 769 787
3 769 788 787
3 769 770 788
3 770 789 788
3 771 772 790
3 772 791 790
3 772 773 791
3 773 792 791
3 773 774 792
3 774 793 792
3 774 775 793
3 775 794 793
3 775 776 794
3 776 795 794
3 776 777 795
3 777 796 795
3 777 778 796
3 778 797 796
3 778 779 797
3 779 798 797
3 779 780 798
3 780 799 798
3 780 781 799
3 781 800 799
3 781 782 800
3 782 801 800
3 782 783 801
3 783 802 801
3 783 784 802
3 784 803 802
3 784 785 803
3 785 804 803
3 785 786 804
3 786 805 804
3 786 787 805
3 787 806 805
3 787 788 806
3 788 807 806
3 788 789 807
3 789 808 807
3 790 791 809
3 791 810 809
3 791 792 810
3 792 811 810
3 792 793 811
3 793 812 811
3 793 794 812
3 794 813 812
3 794 795 813
3 795 814 813
3 795 796 814
3 796 815 814
3 796 797 815
3 797 816 815
3 797 798 816
3 798 817 816
3 798 799 817
3 799 818 817
3 799 800 818
3 800 819 818
3 800 801 819
3 801 820 819
3 801 802 820
3 802 821 820
3 802 803 821
3 803 822 821
3 803 804 822
3 804 823 822
3 804 805 823
3 805 824 823
3 805 806 824
3 806 825 824
3 806 807 825
3 807 826 825
3 807 808 826
3 808 827 826
3 809 810 828
3 810 829 828
3 810 811 829
3 811 830 829
3 811 812 830
3 812 831 830
3 812 813 831
3 813 832 831
3 813 814 832
3 814 833 832
3 814 815 833
3 815 834 833
3 815 816 834
3 816 835 834
3 816 817 835
3 817 836 835
3 817 818 836
3 818 837 836
3 818 819 837
3 819 838 837
3 819 820 838
3 820 839 838
3 820 821 839
3 821 840 839
3 821 822 840
3 822 841 840
3 822 823 841
3 823 842 841
3 823 824 842
3 824 843 842
3 824 825 843
3 825 844 843
3 825 826 844
3 826 845 844
3 826 827 845
3 827 846 845
3 847 848 866
3 848 867 866
3 848 849 867
3 849 868 867
3 849 850 868
3 850 869 868
3 850 851 869
3 851 870 869
3 851 852 870
3 852 871 870
3 852 853 871
3 853 872 871
3 853 854 872
3 854 873 872
3 854 855 873
3 855 874 873
3 855 856 874
3 856 875 874
3 856 857 875
3 857 876 875
3 857 858 876
3 858 877 876
3 858 859 877
3 859 878 877
3 859 860 878
3 860 879 878
3 860 861 879
3 861 880 879
3 861 862 880
3 862 881 880
3 862 863 881
3 863 882 881
3 863 864 882
3 864 883 882
3 864 865 883
3 865 884 883
3 866 867 885
3 867 886 885
3 867 868 886
3 868 887 886
3 868 869 887
3 869 888 887
3 869 870 888
3 870 889 888
3 870 871 889
3 871 890 889
3 871 872 890
3 872 891 890
3 872 873 891
3 873 892 891
3 873 874 892
3 874 893 892
3 874 875 893
3 875 894 893
3 875 876 894
3 876 895 894
3 876 877 895
3 877 896 895
3 877 878 896
3 878 897 896
3 878 879 897
3 879 898 897
3 879 880 898
3 880 899 898
3 880 881 899
3 881 900 899
3 881 882 900
3 882 901 900
3 882 883 901
3 883 902 901
3 883 884 902
3 884 903 902
3 885 886 904
3 886 905 904
3 886 887 905
3 887 906 905
3 887 888 906
3 888 907 906
3 888 889 907
3 889 908 907
3 889 890 908
3 890 909 908
3 890 891 909
3 891 910 909
3 891 892 910
3 892 911 910
3 892 893 911
3 893 912 911
3 893 894 912
3 894 913 912
3 894 895 913
3 895 914 913
3 895 896 914
3 896 915 914
3 896 897 915
3 897 916 915
3 897 898 916
3 898 917 916
3 898 899 917
3 899 918 917
3 899 900 918
3 900 919 918
3 900 901 919
3 901 920 919
3 901 902 920
3 902 921 920
3 902 903 921
3 903 922 921
3 904 905 923
3 905 924 923
3 905 906 924
3 906 925 924
3 906 907 925
3 907 926 925
3 907 908 926
3 908 927 926
3 908 909 927
3 909 928 927
3 909 910 928
3 910 929 928
3 910 911 929
3 911 930 929
3 911 912 930
3 912 931 930
3 912 913 931
3 913 932 931
3 913 914 932
3 914 933 932
3 914 915 933
3 915 934 933
3 915 916 934
3 916 935 934
3 916 917 935
3 917 936 935
3 917 918 936
3 918 937 936
3 918 919 937
3 919 938 937
3 919 920 938
3 920 939 938
3 920 921 939
3 921 940 939
3 921 922 940
3 922 941 940
3 923 924 942
3 924 943 942
3 924 925 943
3 925 944 943
3 925 926 944
3 926 945 944
3 926 927 945
3 927 946 945
3 927 928 946
3 928 947 946
3 928 929 947
3 929 948 947
3 929 930 948
3 930 949 948
3 930 931 949
3 931 950 949
3 931 932 950
3 932 951 950
3 932 933 951
3 933 952 951
3 933 934 952
3 934 953 952
3 934 935 953
3 935 954 953
3 935 936 954
3 936 955 954
3 936 937 955
3 937 956 955
3 937 938 956
3 938 957 956
3 938 939 957
3 939 958 957
3 939 940 958
3 940 959 958
3 940 941 959
3 941 960 959
3 942 943 961
3 943 962 961
3 943 944 962
3 944 963 962
3 944 945 963
3 945 964 963
3 945 946 964
3 946 965 964
3 946 947 965
3 947 966 965
3 947 948 966
3 948 967 966
3 948 949 967
3 949 968 967
3 949 950 968
3 950 969 968
3 950 951 969
3 951 970 969
3 951 952 970
3 952 971 970
3 952 953 971
3 953 972 971
3 953 954 972
3 954 973 972
3 954 955 973
3 955 974 973
3 955 956 974
3 956 975 974
3 956 957 975
3 957 976 975
3 957 958 976
3 958 977 976
3 958 959 977
3 959 978 977
3 959 960 978
3 960 979 978
3 961 962 980
3 962 981 980
3 962 963 981
3 963 982 981
3 963 964 982
3 964 983 982
3 964 965 983
3 965 984 983
3 965 966 984
3 966 985 984
3 966 967 985
3 967 986 985
3 967 968 986
3 968 987 986
3 968 969 987
3 969 988 987
3 969 970 988
3 970 989 988
3 970 971 989
3 971 990 989
3 971 972 990
3 972 991 990
3 972 973 991
3 973 992 991
3 973 974 992
3 974 993 992
3 974 975 993
3 975 994 993
3 975 976 994
3 976 995 994
3 976 977 995
3 977 996 995
3 977 978 996
3 978 997 996
3 978 979 997
3 979 998 997
3 980 981 999
3 981 1000 999
3 981 982 1000
3 982 1001 1000
3 982 983 1001
3 983 1002 1001
3 983 984 1002
3 984 1003 1002
3 984 985 1003
3 985 1004 1003
3 985 986 1004
3 986 1005 1004
3 986 987 1005
3 987 1006 1005
3 987 988 1006
3 988 1007 1006
3 988 989 1007
3 989 1008 1007
3 989 990 1008
3 990 1009 1008
3 990 991 1009
3 991 1010 1009
3 991 992 1010
3 992 1011 1010
3 992 993 1011
3 993 1012 1011
3 993 994 1012
3 994 1013 1012
3 994 995 1013
3 995 1014 1013
3 995 996 1014
3 996 1015 1014
3 996 997 1015
3 997 1016 1015
3 997 998 1016
3 998 1017 1016
3 999 1000 1018
3 1000 1019 1018
3 1000 1001 1019
3 1001 1020 1019
3 1001 1002 1020
3 1002 1021 1020
3 1002 1003 1021
3 1003 1022 1021
3 1003 1004 1022
3 1004 1023 1022
3 1004 1005 1023
3 1005 1024 1023
3 1005 1006 1024
3 1006 1025 1024
3 1006 1007 1025
3 1007 1026 1025
3 1007 1008 1026
3 1008 1027 1026
3 1008 1009 1027
3 1009 1028 1027
3 1009 1010 1028
3 1010 1029 1028
3 1010 1011 1029
3 1011 1030 1029
3 1011 1012 1030
3 1012 1031 1030
3 1012 1013 1031
3 1013 1032 1031
3 1013 1014 1032
3 1014 1033 1032
3 1014 1015 1033
3 1015 1034 1033
3 1015 1016 1034
3 1016 1035 1034
3 1016 1017 1035
3 1017 1036 1035
3 1018 1019 1037
3 1019 1038 1037
3 1019 1020 1038
3 1020 1039 1038
3 1020 1021 1039
3 1021 1040 1039
3 1021 1022 1040
3 1022 1041 1040
3 1022 1023 1041
3 1023 1042 1041
3 1023 1024 1042
3 1024 1043 1042
3 1024 1025 1043
3 1025 1044 1043
3 1025 1026 1044
3 1026 1045 1044
3 1026 1027 1045
3 1027 1046 1045
3 1027 1028 1046
3 1028 1047 1046
3 1028 1029 1047
3 1029 1048 1047
3 1029 1030 1048
3 1030 1049 1048
3 1030 1031 1049
3 1031 1050 1049
3 1031 1032 1050
3 1032 1051 1050
3 1032 1033 1051
3 1033 1052 1051
3 1033 1034 1052
3 1034 1053 1052
3 1034 1035 1053
3 1035 1054 1053
3 1035 1036 1054
3 1036 1055 1054
3 1056 1057 1075
3 1057 1076 1075
3 1057 1058 1076
3 1058 1077 1076
3 1058 1059 1077
3 1059 1078 1077
3 1059 1060 1078
3 1060 1079 1078
3 1060 1061 1079
3 1061 1080 1079
3 1061 1062 1080
3 1062 1081 1080
3 1062 1063 1081
3 1063 1082 1081
3 1063 1064 1082
3 1064 1083 1082
3 1064 1065 1083
3 1065 1084 1083
3 1065 1066 1084
3 1066 1085 1084
3 1066 1067 1085
3 1067 1086 1085
3 1067 1068 1086
3 1068 1087 1086
3 1068 1069 1087
3 1069 1088 1087
3 1069 1070 1088
3 1070 1089 1088
3 1070 1071 1089
3 1071 1090 1089
3 1071 1072 1090
3 1072 1091 1090
3 1072 1073 1091
3 1073 1092 1091
3 1073 1074 1092
3 1074 1093 1092
3 1075 1076 1094
3 1076 1095 1094
3 1076 1077 1095
3 1077 1096 1095
3 1077 1078 1096
3 1078 1097 1096
3 1078 1079 1097
3 1079 1098 1097
3 1079 1080 1098
3 1080 1099 1098
3 1080 1081 1099
3 1081 1100 1099
3 1081 1082 1100
3 1082 1101 1100
3 1082 1083 1101
3 1083 1102 1101
3 1083 1084 1102
3 1084 1103 1102
3 1084 1085 1103
3 1085 1104 1103
3 1085 1086 1104
3 1086 1105 1104
3 1086 1087 1105
3 1087 1106 1105
3 1087 1088 1106
3 1088 1107 1106
3 1088 1089 1107
3 1089 1108 1107
3 1089 1090 1108
3 1090 1109 1108
3 1090 1091 1109
3 1091 1110 1109
3 1091 1092 1110
3 1092 1111 1110
3 1092 1093 1111
3 1093 1112 1111
3 1094 1095 1113
3 1095 1114 1113
3 1095 1096 1114
3 1096 1115 1114
3 1096 1097 1115
3 1097 1116 1115
3 1097 1098 1116
3 1098 1117 1116
3 1098 1099 1117
3 1099 1118 1117
3 1099 1100 1118
3 1100 1119 1118
3 1100 1101 1119
3 1101 1120 1119
3 1101 1102 1120
3 1102 1121 1120
3 1102 1103 1121
3 1103 1122 1121
3 1103 1104 1122
3 1104 1123 1122
3 1104 1105 1123
3 1105 1124 1123
3 1105 1106 1124
3 1106 1125 1124
3 1106 1107 1125
3 1107 1126 1125
3 1107 1108 1126
3 1108 1127 1126
3 1108 1109 1127
3 1109 1128 1127
3 1109 1110 1128
3 1110 1129 1128
3 1110 1111 1129
3 1111 1130 1129
3 1111 1112 1130
3 1112 1131 1130
3 1113 1114 1132
3 1114 1133 1132
3 1114 1115 1133
3 1115 1134 1133
3 1115 1116 1134
3 1116 1135 1134
3 1116 1117 1135
3 1117 1136 1135
3 1117 1118 1136
3 1118 1137 1136
3 1118 1119 1137
3 1119 1138 1137
3 1119 1120 1138
3 1120 1139 1138
3 1120 1121 1139
3 1121 1140 1139
3 1121 1122 1140
3 1122 1141 1140
3 1122 1123 1141
3 1123 1142 1141
3 1123 1124 1142
3 1124 1143 1142
3 1124 1125 1143
3 1125 1144 1143
3 1125 1126 1144
3 1126 1145 1144
3 1126 1127 1145
3 1127 1146 1145
3 1127 1128 1146
3 1128 1147 1146
3 1128 1129 1147
3 1129 1148 1147
3 1129 1130 1148
3 1130 1149 1148
3 1130 1131 1149
3 1131 1150 1149
3 1132 1133 1151
3 1133 1152 1151
3 1133 1134 1152
3 1134 1153 1152
3 1134 1135 1153
3 1135 1154 1153
3 1135 1136 1154
3 1136 1155 1154
3 1136 1137 1155
3 1137 1156 1155
3 1137 1138 1156
3 1138 1157 1156
3 1138 1139 1157
3 1139 1158 1157
3 1139 1140 1158
3 1140 1159 1158
3 1140 1141 1159
3 1141 1160 1159
3 1141 1142 1160
3 1142 1161 1160
3 1142 1143 1161
3 1143 1162 1161
3 1143 1144 1162
3 1144 1163 1162
3 1144 1145 1163
3 1145 1164 1163
3 1145 1146 1164
3 1146 1165 1164
3 1146 1147 1165
3 1147 1166 1165
3 1147 1148 1166
3 1148 1167 1166
3 1148 1149 1167
3 1149 1168 1167
3 1149 1150 1168
3 1150 1169 1168
3 1151 1152 1170
3 1152 1171 1170
3 1152 1153 1171
3 1153 1172 1171
3 1153 1154 1172
3 1154 1173 1172
3 1154 1155 1173
3 1155 1174 1173
3 1155 1156 1174
3 1156 1175 1174
3 1156 1157 1175
3 1157 1176 1175
3 1157 1158 1176
3 1158 1177 1176
3 1158 1159 1177
3 1159 1178 1177
3 1159 1160 1178
3 1160 1179 1178
3 1160 1161 1179
3 1161 1180 1179
3 1161 1162 1180
3 1162 1181 1180
3 1162 1163 1181
3 1163 1182 1181
3 1163 1164 1182
3 1164 1183 1182
3 1164 1165 1183
3 1165 1184 1183
3 1165 1166 1184
3 1166 1185 1184
3 1166 1167 1185
3 1167 1186 1185
3 1167 1168 1186
3 1168 1187 1186
3 1168 1169 1187
3 1169 1188 1187
3 1170 1171 1189
3 1171 1190 1189
3 1171 1172 1190
3 1172 1191 1190
3 1172 1173 1191
3 1173 1192 1191
3 1173 1174 1192
3 1174 1193 1192
3 1174 1175 1193
3 1175 1194 1193
3 1175 1176 1194
3 1176 1195 1194
3 1176 1177 1195
3 1177 1196 1195
3 1177 1178 1196
3 1178 1197 1196
3 1178 1179 1197
3 1179 1198 1197
3 1179 1180 1198
3 1180 1199 1198
3 1180 1181 1199
3 1181 1200 1199
3 1181 1182 1200
3 1182 1201 1200
3 1182 1183 1201
3 1183 1202 1201
3 1183 1184 1202
3 1184 1203 1202
3 1184 1185 1203
3 1185 1204 1203
3 1185 1186 1204
3 1186 1205 1204
3 1186 1187 1205
3 1187 1206 1205
3 1187 1188 1206
3 1188 1207 1206
3 1189 1190 1208
3 1190 1209 1208
3 1190 1191 1209
3 1191 1210 1209
3 1191 1192 1210
3 1192 1211 1210
3 1192 1193 1211
3 1193 1212 1211
3 1193 1194 1212
3 1194 1213 1212
3 1194 1195 1213
3 1195 1214 1213
3 1195 1196 1214
3 1196 1215 1214
3 1196 1197 1215
3 1197 1216 1215
3 1197 1198 1216
3 1198 1217 1216
3 1198 1199 1217
3 1199 1218 1217
3 1199 1200 1218
3 1200 1219 1218
3 1200 1201 1219
3 1201 1220 1219
3 1201 1202 1220
3 1202 1221 1220
3 1202 1203 1221
3 1203 1222 1221
3 1203 1204 1222
3 1204 1223 1222
3 1204 1205 1223
3 1205 1224 1223
3 1205 1206 1224
3 1206 1225 1224
3 1206 1207 1225
3 1207 1226 1225
3 1208 1209 1227
3 1209 1228 1227
3 1209 1210 1228
3 1210 1229 1228
3 1210 1211 1229
3 1211 1230 1229
3 1211 1212 1230
3 1212 1231 1230
3 1212 1213 1231
3 1213 1232 1231
3 1213 1214 1232
3 1214 1233 1232
3 1214 1215 1233
3 1215 1234 1233
3 1215 1216 1234
3 1216 1235 1234
3 1216 1217 1235
3 1217 1236 1235
3 1217 1218 1236
3 1218 1237 1236
3 1218 1219 1237
3 1219 1238 1237
3 1219 1220 1238
3 1220 1239 1238
3 1220 1221 1239
3 1221 1240 1239
3 1221 1222 1240
3 1222 1241 1240
3 1222 1223 1241
3 1223 1242 1241
3 1223 1224 1242
3 1224 1243 1242
3 1224 1225 1243
3 1225 1244 1243
3 1225 1226 1244
3 1226 1245 1244
3 1227 1228 1246
3 1228 1247 1246
3 1228 1229 1247
3 1229 1248 1247
3 1229 1230 1248
3 1230 1249 1248
3 1230 1231 1249
3 1231 1250 1249
3 1231 1232 1250
3 1232 1251 1250
3 1232 1233 1251
3 1233 1252 1251
3 1233 1234 1252
3 1234 1253 1252
3 1234 1235 1253
3 1235 1254 1253
3 1235 1236 1254
3 1236 1255 1254
3 1236 1237 1255
3 1237 1256 1255
3 1237 1238 1256
3 1238 1257 1256
3 1238 1239 1257
3 1239 1258 1257
3 1239 1240 1258
3 1240 1259 1258
3 1240 1241 1259
3 1241 1260 1259
3 1241 1242 1260
3 1242 1261 1260
3 1242 1243 1261
3 1243 1262 1261
3 1243 1244 1262
3 1244 1263 1262
3 1244 1245 1263
3 1245 1264 1263
3 1265 1266 1284
3 1266 1285 1284
3 1266 1267 1285
3 1267 1286 1285
3 1267 1268 1286
3 1268 1287 1286
3 1268 1269 1287
3 1269 1288 1287
3 1269 1270 1288
3 1270 1289 1288
3 1270 1271 1289
3 1271 1290 1289
3 1271 1272 1290
3 1272 1291 1290
3 1272 1273 1291
3 1273 1292 1291
3 1273 1274 1292
3 1274 1293 1292
3 1274 1275 1293
3 1275 1294 1293
3 1275 1276 1294
3 1276 1295 1294
3 1276 1277 1295
3 1277 1296 1295
3 1277 1278 1296
3 1278 1297 1296
3 1278 1279 1297
3 1279 1298 1297
3 1279 1280 1298
3 1280 1299 1298
3 1280 1281 1299
3 1281 1300 1299
3 1281 1282 1300
3 1282 1301 1300
3 1282 1283 1301
3 1283 1302 1301
3 1284 1285 1303
3 1285 1304 1303
3 1285 1286 1304
3 1286 1305 1304
3 1286 1287 1305
3 1287 1306 1305
3 1287 1288 1306
3 1288 1307 1306
3 1288 1289 1307
3 1289 1308 1307
3 1289 1290 1308
3 1290 1309 1308
3 1290 1291 1309
3 1291 1310 1309
3 1291 1292 1310
3 1292 1311 1310
3 1292 1293 1311
3 1293 1312 1311
3 1293 1294 1312
3 1294 1313 1312
3 1294 1295 1313
3 1295 1314 1313
3 1295 1296 1314
3 1296 1315 1314
3 1296 1297 1315
3 1297 1316 1315
3 1297 1298 1316
3 1298 1317 1316
3 1298 1299 1317
3 1299 1318 1317
3 1299 1300 1318
3 1300 1319 1318
3 1300 1301 1319
3 1301 1320 1319
3 1301 1302 1320
3 1302 1321 1320
3 1303 1304 1322
3 1304 1323 1322
3 1304 1305 1323
3 1305 1324 1323
3 1305 1306 1324
3 1306 1325 1324
3 1306 1307 1325
3 1307 1326 1325
3 1307 1308 1326
3 1308 1327 1326
3 1308 1309 1327
3 1309 1328 1327
3 1309 1310 1328
3 1310 1329 1328
3 1310 1311 1329
3 1311 1330 1329
3 1311 1312 1330
3 1312 1331 1330
3 1312 1313 1331
3 1313 1332 1331
3 1313 1314 1332
3 1314 1333 1332
3 1314 1315 1333
3 1315 1334 1333
3 1315 1316 1334
3 1316 1335 1334
3 1316 1317 1335
3 1317 1336 1335
3 1317 1318 1336
3 1318 1337 1336
3 1318 1319 1337
3 1319 1338 1337
3 1319 1320 1338
3 1320 1339 1338
3 1320 1321 1339
3 1321 1340 1339
3 1322 1323 1341
3 1323 1342 1341
3 1323 1324 1342
3 1324 1343 1342
3 1324 1325 1343
3 1325 1344 1343
3 1325 1326 1344
3 1326 1345 1344
3 1326 1327 1345
3 1327 1346 1345
3 1327 1328 1346
3 1328 1347 1346
3 1328 1329 1347
3 1329 1348 1347
3 1329 1330 1348
3 1330 1349 1348
3 1330 1331 1349
3 1331 1350 1349
3 1331 1332 1350
3 1332 1351 1350
3 1332 1333 1351
3 1333 1352 1351
3 1333 1334 1352
3 1334 1353 1352
3 1334 1335 1353
3 1335 1354 1353
3 1335 1336 1354
3 1336 1355 1354
3 1336 1337 1355
3 1337 1356 1355
3 1337 1338 1356
3 1338 1357 1356
3 1338 1339 1357
3 1339 1358 1357
3 1339 1340 1358
3 1340 1359 1358
3 1341 1342 1360
3 1342 1361 1360
3 1342 1343 1361
3 1343 1362 1361
3 1343 1344 1362
3 1344 1363 1362
3 1344 1345 1363
3 1345 1364 1363
3 1345 1346 1364
3 1346 1365 1364
3 1346 1347 1365
3 1347 1366 1365
3 1347 1348 1366
3 1348 1367 1366
3 1348 1349 1367
3 1349 1368 1367
3 1349 1350 1368
3 1350 1369 1368
3 1350 1351 1369
3 1351 1370 1369
3 1351 1352 1370
3 1352 1371 1370
3 1352 1353 1371
3 1353 1372 1371
3 1353 1354 1372
3 1354 1373 1372
3 1354 1355 1373
3 1355 1374 1373
3 1355 1356 1374
3 1356 1375 1374
3 1356 1357 1375
3 1357 1376 1375
3 1357 1358 1376
3 1358 1377 1376
3 1358 1359 1377
3 1359 1378 1377
3 1360 1361 1379
3 1361 1380 1379
3 1361 1362 1380
3 1362 1381 1380
3 1362 1363 1381
3 1363 1382 1381
3 1363 1364 1382
3 1364 1383 1382
3 1364 1365 1383
3 1365 1384 1383
3 1365 1366 1384
3 1366 1385 1384
3 1366 1367 1385
3 1367 1386 1385
3 1367 1368 1386
3 1368 1387 1386
3 1368 1369 1387
3 1369 1388 1387
3 1369 1370 1388
3 1370 1389 1388
3 1370 1371 1389
3 1371 1390 1389
3 1371 1372 1390
3 1372 1391 1390
3 1372 1373 1391
3 1373 1392 1391
3 1373 1374 1392
3 1374 1393 1392
3 1374 1375 1393
3 1375 1394 1393
3 1375 1376 1394
3 1376 1395 1394
3 1376 1377 1395
3 1377 1396 1395
3 1377 1378 1396
3 1378 1397 1396
3 1379 1380 1398
3 1380 1399 1398
3 1380 1381 1399
3 1381 1400 1399
3 1381 1382 1400
3 1382 1401 1400
3 1382 1383 1401
3 1383 1402 1401
3 1383 1384 1402
3 1384 1403 1402
3 1384 1385 1403
3 1385 1404 1403
3 1385 1386 1404
3 1386 1405 1404
3 1386 1387 1405
3 1387 1406 1405
3 1387 1388 1406
3 1388 1407 1406
3 1388 1389 1407
3 1389 1408 1407
3 1389 1390 1408
3 1390 1409 1408
3 1390 1391 1409
3 1391 1410 1409
3 1391 1392 1410
3 1392 1411 1410
3 1392 1393 1411
3 1393 1412 1411
3 1393 1394 1412
3 1394 1413 1412
3 1394 1395 1413
3 1395 1414 1413
3 1395 1396 1414
3 1396 1415 1414
3 1396 1397 1415
3 1397 1416 1415
3 1398 1399 1417
3 1399 1418 1417
3 1399 1400 1418
3 1400 1419 1418
3 1400 1401 1419
3 1401 1420 1419
3 1401 1402 1420
3 1402 1421 1420
3 1402 1403 1421
3 1403 1422 1421
3 1403 1404 1422
3 1404 1423 1422
3 1404 1405 1423
3 1405 1424 1423
3 1405 1406 1424
3 1406 1425 1424
3 1406 1407 1425
3 1407 1426 1425
3 1407 1408 1426
3 1408 1427 1426
3 1408 1409 1427
3 1409 1428 1427
3 1409 1410 1428
3 1410 1429 1428
3 1410 1411 1429
3 1411 1430 1429
3 1411 1412 1430
3 1412 1431 1430
3 1412 1413 1431
3 1413 1432 1431
3 1413 1414 1432
3 1414 1433 1432
3 1414 1415 1433
3 1415 1434 1433
3 1415 1416 1434
3 1416 1435 1434
3 1417 1418 1436
3 1418 1437 1436
3 1418 1419 1437
3 1419 1438 1437
3 1419 1420 1438
3 1420 1439 1438
3 1420 1421 1439
3 1421 1440 1439
3 1421 1422 1440
3 1422 1441 1440
3 1422 1423 1441
3 1423 1442 1441
3 1423 1424 1442
3 1424 1443 1442
3 1424 1425 1443
3 1425 1444 1443
3 1425 1426 1444
3 1426 1445 1444
3 1426 1427 1445
3 1427 1446 1445
3 1427 1428 1446
3 1428 1447 1446
3 1428 1429 1447
3 1429 1448 1447
3 1429 1430 1448
3 1430 1449 1448
3 1430 1431 1449
3 1431 1450 1449
3 1431 1432 1450
3 1432 1451 1450
3 1432 1433 1451
3 1433 1452 1451
3 1433 1434 1452
3 1434 1453 1452
3 1434 1435 1453
3 1435 1454 1453
3 1436 1437 1455
3 1437 1456 1455
3 1437 1438 1456
3 1438 1457 1456
3 1438 1439 1457
3 1439 1458 1457
3 1439 1440 1458
3 1440 1459 1458
3 1440 1441 1459
3 1441 1460 1459
3 1441 1442 1460
3 1442 1461 1460
3 1442 1443 1461
3 1443 1462 1461
3 1443 1444 1462
3 1444 1463 1462
3 1444 1445 1463
3 1445 1464 1463
3 1445 1446 1464
3 1446 1465 1464
3 1446 1447 1465
3 1447 1466 1465
3 1447 1448 1466
3 1448 1467 1466
3 1448 1449 1467
3 1449 1468 1467
3 1449 1450 1468
3 1450 1469 1468
3 1450 1451 1469
3 1451 1470 1469
3 1451 1452 1470
3 1452 1471 1470
3 1452 1453 1471
3 1453 1472 1471
3 1453 1454 1472
3 1454 1473 1472
3 1474 1475 1492
3 1475 1493 1492
3 1475 1476 1493
3 1476 1494 1493
3 1476 1477 1494
3 1477 1495 1494
3 1477 1478 1495
3 1478 1496 1495
3 1478 1479 1496
3 1479 1497 1496
3 1479 1480 1497
3 1480 1498 1497
3 1480 1481 1498
3 1481 1499 1498
3 1481 1482 1499
3 1482 1500 1499
3 1482 1483 1500
3 1483 1501 1500
3 1483 1484 1501
3 1484 1502 1501
3 1484 1485 1502
3 1485 1503 1502
3 1485 1486 1503
3 1486 1504 1503
3 1486 1487 1504
3 1487 1505 1504
3 1487 1488 1505
3 1488 1506 1505
3 1488 1489 1506
3 1489 1507 1506
3 1489 1490 1507
3 1490 1508 1507
3 1490 1491 1508
3 1491 1509 1508
3 1491 1474 1509
3 1474 1492 1509
3 1492 1493 1510
3 1493 1511 1510
3 1493 1494 1511
3 1494 1512 1511
3 1494 1495 1512
3 1495 1513 1512
3 1495 1496 1513
3 1496 1514 1513
3 1496 1497 1514
3 1497 1515 1514
3 1497 1498 1515
3 1498 1516 1515
3 1498 1499 1516
3 1499 1517 1516
3 1499 1500 1517
3 1500 1518 1517
3 1500 1501 1518
3 1501 1519 1518
3 1501 1502 1519
3 1502 1520 1519
3 1502 1503 1520
3 1503 1521 1520
3 1503 1504 1521
3 1504 1522 1521
3 1504 1505 1522
3 1505 1523 1522
3 1505 1506 1523
3 1506 1524 1523
3 1506 1507 1524
3 1507 1525 1524
3 1507 1508 1525
3 1508 1526 1525
3 1508 1509 1526
3 1509 1527 1526
3 1509 1492 1527
3 1492 1510 1527
3 1510 1511 1528
3 1511 1529 1528
3 1511 1512 1529
3 1512 1530 1529
3 1512 1513 1530
3 1513 1531 1530
3 1513 1514 1531
3 1514 1532 1531
3 1514 1515 1532
3 1515 1533 1532
3 1515 1516 1533
3 1516 1534 1533
3 1516 1517 1534
3 1517 1535 1534
3 1517 1518 1535
3 1518 1536 1535
3 1518 1519 1536
3 1519 1537 1536
3 1519 1520 1537
3 1520 1538 1537
3 1520 1521 1538
3 1521 1539 1538
3 1521 1522 1539
3 1522 1540 1539
3 1522 1523 1540
3 1523 1541 1540
3 1523 1524 1541
3 1524 1542 1541
3 1524 1525 1542
3 1525 1543 1542
3 1525 1526 1543
3 1526 1544 1543
3 1526 1527 1544
3 1527 1545 1544
3 1527 1510 1545
3 1510 1528 1545
3 1528 1529 1546
3 1529 1547 1546
3 1529 1530 1547
3 1530 1548 1547
3 1530 1531 1548
3 1531 1549 1548
3 1531 1532 1549
3 1532 1550 1549
3 1532 1533 1550
3 1533 1551 1550
3 1533 1534 1551
3 1534 1552 1551
3 1534 1535 1552
3 1535 1553 1552
3 1535 1536 1553
3 1536 1554 1553
3 1536 1537 1554
3 1537 1555 1554
3 1537 1538 1555
3 1538 1556 1555
3 1538 1539 1556
3 1539 1557 1556
3 1539 1540 1557
3 1540 1558 1557
3 1540 1541 1558
3 1541 1559 1558
3 1541 1542 1559
3 1542 1560 1559
3 1542 1543 1560
3 1543 1561 1560
3 1543 1544 1561
3 1544 1562 1561
3 1544 1545 1562
3 1545 1563 1562
3 1545 1528 1563
3 1528 1546 1563
3 1546 1547 1564
3 1547 1565 1564
3 1547 1548 1565
3 1548 1566 1565
3 1548 1549 1566
3 1549 1567 1566
3 1549 1550 1567
3 1550 1568 1567
3 1550 1551 1568
3 1551 1569 1568
3 1551 1552 1569
3 1552 1570 1569
3 1552 1553 1570
3 1553 1571 1570
3 1553 1554 1571
3 1554 1572 1571
3 1554 1555 1572
3 1555 1573 1572
3 1555 1556 1573
3 1556 1574 1573
3 1556 1557 1574
3 1557 1575 1574
3 1557 1558 1575
3 1558 1576 1575
3 1558 1559 1576
3 1559 1577 1576
3 1559 1560 1577
3 1560 1578 1577
3 1560 1561 1578
3 1561 1579 1578
3 1561 1562 1579
3 1562 1580 1579
3 1562 1563 1580
3 1563 1581 1580
3 1563 1546 1581
3 1546 1564 1581
3 1564 1565 1582
3 1565 1583 1582
3 1565 1566 1583
3 1566 1584 1583
3 1566 1567 1584
3 1567 1585 1584
3 1567 1568 1585
3 1568 1586 1585
3 1568 1569 1586
3 1569 1587 1586
3 1569 1570 1587
3 1570 1588 1587
3 1570 1571 1588
3 1571 1589 1588
3 1571 1572 1589
3 1572 1590 1589
3 1572 1573 1590
3 1573 1591 1590
3 1573 1574 1591
3 1574 1592 1591
3 1574 1575 1592
3 1575 1593 1592
3 1575 1576 1593
3 1576 1594 1593
3 1576 1577 1594
3 1577 1595 1594
3 1577 1578 1595
3 1578 1596 1595
3 1578 1579 1596
3 1579 1597 1596
3 1579 1580 1597
3 1580 1598 1597
3 1580 1581 1598
3 1581 1599 1598
3 1581 1564 1599
3 1564 1582 1599
3 1582 1583 1600
3 1583 1601 1600
3 1583 1584 1601
3 1584 1602 1601
3 1584 1585 1602
3 1585 1603 1602
3 1585 1586 1603
3 1586 1604 1603
3 1586 1587 1604
3 1587 1605 1604
3 1587 1588 1605
3 1588 1606 1605
3 1588 1589 1606
3 1589 1607 1606
3 1589 1590 1607
3 1590 1608 1607
3 1590 1591 1608
3 1591 1609 1608
3 1591 1592 1609
3 1592 1610 1609
3 1592 1593 1610
3 1593 1611 1610
3 1593 1594 1611
3 1594 1612 1611
3 1594 1595 1612
3 1595 1613 1612
3 1595 1596 1613
3 1596 1614 1613
3 1596 1597 1614
3 1597 1615 1614
3 1597 1598 1615
3 1598 1616 1615
3 1598 1599 1616
3 1599 1617 1616
3 1599 1582 1617
3 1582 1600 1617
3 1600 1601 1618
3 1601 1619 1618
3 1601 1602 1619
3 1602 1620 1619
3 1602 1603 1620
3 1603 1621 1620
3 1603 1604 1621
3 1604 1622 1621
3 1604 1605 1622
3 1605 1623 1622
3 1605 1606 1623
3 1606 1624 1623
3 1606 1607 1624
3 1607 1625 1624
3 1607 1608 1625
3 1608 1626 1625
3 1608 1609 1626
3 1609 1627 1626
3 1609 1610 1627
3 1610 1628 1627
3 1610 1611 1628
3 1611 1629 1628
3 1611 1612 1629
3 1612 1630 1629
3 1612 1613 1630
3 1613 1631 1630
3 1613 1614 1631
3 1614 1632 1631
3 1614 1615 1632
3 1615 1633 1632
3 1615 1616 1633
3 1616 1634 1633
3 1616 1617 1634
3 1617 1635 1634
3 1617 1600 1635
3 1600 1618 1635
3 1636 1475 1474
3 1636 1476 1475
3 1636 1477 1476
3 1636 1478 1477
3 1636 1479 1478
3 1636 1480 1479
3 1636 1481 1480
3 1636 1482 1481
3 1636 1483 1482
3 1636 1484 1483
3 1636 1485 1484
3 1636 1486 1485
3 1636 1487 1486
3 1636 1488 1487
3 1636 1489 1488
3 1636 1490 1489
3 1636 1491 1490
3 1636 1474 1491
3 1637 1618 1619
3 1637 1619 1620
3 1637 1620 1621
3 1637 1621 1622
3 1637 1622 1623
3 1637 1623 1624
3 1637 1624 1625
3 1637 1625 1626
3 1637 1626 1627
3 1637 1627 1628
3 1637 1628 1629
3 1637 1629 1630
3 1637 1630 1631
3 1637 1631 1632
3 1637 1632 1633
3 1637 1633 1634
3 1637 1634 1635
3 1637 1635 1618
